<?xml version="1.0" encoding="UTF-8" standalone="no"?><!DOCTYPE svg PUBLIC "-//W3C//DTD SVG 1.1//EN" "http://www.w3.org/Graphics/SVG/1.1/DTD/svg11.dtd"><svg width="100%" height="100%" viewBox="0 0 95 117" version="1.1" xmlns="http://www.w3.org/2000/svg" xmlns:xlink="http://www.w3.org/1999/xlink" xml:space="preserve" style="fill-rule:evenodd;clip-rule:evenodd;stroke-linejoin:round;stroke-miterlimit:1.41421;"><path d="M0.847,116.489c0.621,0.007 1.445,0.015 2.1,0.017l0.174,0.001c-1.179,-0.003 -2.851,-0.024 -2.851,-0.024l-0.002,0l0.579,0.006Zm0.348,-3.899c0.009,0 0.449,0.008 1.009,0.019c0.048,0.001 0.096,0.001 0.146,0.002c1.166,0.024 1.789,-1.825 1.859,-2.039c0.07,-0.215 0.129,-0.432 0.179,-0.652l0.5,-2.357l0.501,-2.357c0.013,-0.061 0.029,-0.136 0.046,-0.214l0.025,-0.118l0.031,-0.134c0.015,-0.072 0.031,-0.14 0.043,-0.197l0.521,-2.309l0.522,-2.309c0.041,-0.182 0.227,-0.331 0.413,-0.331l3.712,0c0.186,0 0.306,0.149 0.267,0.331l-1.08,4.997l-1.152,5.328c-0.984,4.643 -2.519,6.256 -5.431,6.256c-0.897,0 -2.377,-0.016 -3.038,-0.024c-0.185,-0.003 -0.302,-0.153 -0.259,-0.333l0.385,-1.618l0.385,-1.618c0.043,-0.181 0.23,-0.326 0.416,-0.323l0,0Zm53.143,-2.157l-0.24,0c-6.743,0 -6.818,-3.804 -5.951,-7.873c0.866,-3.993 2.41,-7.948 8.927,-7.948c6.164,0 6.577,3.655 5.138,9.083l0.001,-0.001c-0.004,0.029 -0.013,0.058 -0.024,0.085c-0.056,0.141 -0.198,0.247 -0.352,0.25c-0.002,0 -0.005,0.001 -0.007,0.001l0.001,-0.001l-9.361,0c-0.118,0.007 -0.335,0.16 -0.379,0.504c-0.064,1.496 0.73,2.02 2.912,2.02l6.063,0c0.187,0 0.308,0.15 0.271,0.332l-0.325,1.592c-0.001,-0.001 -0.001,-0.002 -0.001,-0.003l0,0.003l-0.053,0.259l-0.273,1.335c-0.038,0.18 -0.219,0.33 -0.405,0.332c-0.723,0.006 -2.509,0.02 -4.29,0.027l-0.014,0c-0.271,0 -0.541,0.002 -0.809,0.002l-0.047,0l-0.204,0.001c-0.026,0 -0.052,0 -0.078,0l-0.436,0l-0.032,0l-0.032,0l0,0Zm-25.409,-4.344c0,0 1.826,-4.434 2.241,-6.995c0.566,-3.428 -1.151,-8.4 -7.781,-8.4c-6.592,0 -9.455,4.747 -10.547,9.907c-1.093,5.198 0.338,9.757 6.893,9.719l5.172,-0.019l4.833,-0.017c0.186,-0.002 0.376,-0.15 0.424,-0.329l0.841,-3.212c0.047,-0.18 -0.067,-0.328 -0.253,-0.329l-0.807,-0.005l-0.806,-0.005c-0.159,-0.001 -0.249,-0.103 -0.23,-0.239c0.003,-0.026 0.01,-0.052 0.02,-0.076Zm51.04,4.163l-3.958,0c-0.186,0 -0.301,-0.148 -0.254,-0.328l0.782,-3.043c0.046,-0.18 0.042,-0.475 -0.009,-0.654l-1.795,-6.286c-0.051,-0.179 0.06,-0.325 0.246,-0.325l4.005,0c0.186,0 0.373,0.148 0.414,0.33l0.458,2.011c0.042,0.181 0.162,0.204 0.267,0.05l6.229,-9.126c0.105,-0.154 0.343,-0.279 0.53,-0.279l2.817,0c0.186,0 0.491,-0.002 0.677,-0.003l1.062,-0.007c0.186,-0.001 0.247,0.12 0.134,0.269l-10.112,13.421c-0.112,0.149 -0.242,0.419 -0.288,0.599l-0.782,3.043c-0.047,0.18 -0.237,0.328 -0.423,0.328l0,0Zm-35.559,-0.007l-7.273,0c0,0 -0.058,0 -0.134,-0.002c-4.633,-0.117 -4.859,-3.828 -4.007,-7.72l0.069,-0.326c0,-0.002 0,-0.004 0.001,-0.006l0.74,-3.511l0.74,-3.511c0.039,-0.182 0.223,-0.332 0.409,-0.332l3.442,0c0.186,0 0.308,0.15 0.271,0.332l-0.542,2.645l-0.541,2.644c-0.035,0.17 -0.088,0.439 -0.123,0.624l-0.115,0.612l-0.107,0.571l-0.01,0.053l-0.052,0.28l-0.015,0.068c-0.481,2.225 -0.752,3.849 1.596,3.849l2.374,0c0.186,0 0.37,-0.149 0.41,-0.33l1.19,-5.509l1.191,-5.508c0.04,-0.182 0.224,-0.331 0.41,-0.331l3.354,0c0.186,0 0.307,0.149 0.268,0.332l-1.568,7.373l-1.569,7.372c-0.039,0.182 -0.223,0.331 -0.409,0.331l0,0Zm22.299,-15.369l8.848,0.006c1.922,0 2.807,0.676 3.108,1.848l0.384,1.616c0.043,0.181 -0.075,0.329 -0.261,0.33l-0.001,-0.001l-8.8,0.004c-0.186,0.001 -0.37,0.149 -0.409,0.33l-2.265,10.904c-0.037,0.183 -0.219,0.332 -0.405,0.332l-3.477,0c-0.186,0 -0.307,-0.149 -0.268,-0.332l3.138,-14.706c0.038,-0.183 0.222,-0.331 0.408,-0.331l0,0Zm-40.436,5.575c0.954,-3.208 0.164,-5.987 -3.788,-5.689c-2.891,0.218 -4.294,2.373 -5.009,5.84c-0.716,3.389 0,5.687 2.938,5.687l3.873,0c0.186,0 0.38,-0.147 0.431,-0.326l0.731,-2.593l0.732,-2.593l0,-0.001l0.092,-0.325l0,0Zm31.895,0.367c0.186,0 0.372,-0.148 0.395,-0.35l0.001,0.004c0.142,-1.148 -0.266,-2.169 -2.356,-2.169c-1.856,0 -2.844,0.846 -3.329,2.135l-0.023,0.086c-0.002,0.006 -0.002,0.012 -0.003,0.017c0.002,-0.001 0.003,-0.001 0.003,-0.001c-0.002,0.004 -0.003,0.007 -0.004,0.012c-0.026,0.147 0.063,0.266 0.239,0.266l5.077,0Zm-47.218,-2.277l-3.712,0c-0.186,0 -0.304,-0.148 -0.263,-0.33l0.349,-1.542l0.349,-1.541c0.042,-0.181 0.227,-0.33 0.414,-0.33l3.683,0c0.186,0 0.306,0.149 0.266,0.331l-0.337,1.54l-0.338,1.542c-0.04,0.181 -0.225,0.33 -0.411,0.33l0,0Z" style="fill:#131b28;"/><path d="M5.979,21.3c-8.335,11.98 -7.298,27.566 -0.931,40.295c0.151,0.306 0.311,0.605 0.467,0.906c0.1,0.19 0.193,0.386 0.298,0.573c0.059,0.112 0.124,0.223 0.186,0.33c0.108,0.202 0.22,0.396 0.332,0.593c0.197,0.35 0.4,0.696 0.607,1.043c0.115,0.19 0.229,0.381 0.347,0.571c0.229,0.371 0.465,0.737 0.706,1.104c0.1,0.156 0.197,0.312 0.3,0.464c0.332,0.495 0.672,0.988 1.021,1.475l0.029,0.039c0.056,0.078 0.116,0.153 0.173,0.231c0.303,0.418 0.615,0.83 0.931,1.238c0.116,0.148 0.233,0.298 0.351,0.446c0.39,0.489 0.786,0.972 1.189,1.451c0.399,0.472 0.807,0.936 1.222,1.394c0.018,0.02 0.032,0.031 0.046,0.051c0.833,0.904 1.695,1.782 2.583,2.632c0.134,0.127 0.266,0.257 0.398,0.378c0.443,0.419 0.895,0.829 1.354,1.231c0.077,0.068 0.156,0.133 0.232,0.198c0.397,0.345 0.803,0.687 1.21,1.022c0.166,0.135 0.335,0.267 0.502,0.4c0.333,0.267 0.67,0.53 1.01,0.789l0.539,0.41c0.375,0.275 0.752,0.547 1.133,0.813c0.14,0.1 0.273,0.197 0.413,0.292c0.039,0.027 0.074,0.055 0.113,0.081c0.361,0.249 0.731,0.488 1.1,0.728c0.159,0.105 0.316,0.215 0.477,0.317c0.566,0.359 1.142,0.713 1.723,1.055c0.157,0.091 0.317,0.179 0.476,0.269c0.428,0.247 0.857,0.488 1.293,0.726c0.235,0.127 0.478,0.246 0.715,0.368c0.308,0.161 0.613,0.325 0.926,0.481c0.07,0.034 0.144,0.068 0.214,0.103c0.125,0.061 0.252,0.119 0.378,0.183c0.588,0.283 1.18,0.556 1.777,0.819c0.565,0.246 1.135,0.483 1.71,0.71c0.138,0.057 0.277,0.11 0.416,0.164c0.601,0.232 1.207,0.455 1.816,0.668c0.595,0.208 1.195,0.4 1.8,0.589c0.144,0.042 0.289,0.088 0.435,0.13c0.615,0.186 1.224,0.407 1.857,0.524c40.311,7.351 52.02,-24.224 52.02,-24.224c-9.834,12.812 -27.29,16.19 -43.829,12.429c-0.626,-0.142 -1.234,-0.337 -1.846,-0.518c-0.751,-0.223 -1.497,-0.462 -2.237,-0.718l-0.244,-0.088c-0.525,-0.186 -1.048,-0.38 -1.567,-0.581c-0.146,-0.059 -0.293,-0.114 -0.439,-0.173c-0.568,-0.224 -1.132,-0.459 -1.692,-0.703c-0.114,-0.049 -0.225,-0.101 -0.338,-0.149c-0.617,-0.279 -1.231,-0.567 -1.84,-0.862c-0.371,-0.181 -0.737,-0.373 -1.104,-0.562c-0.245,-0.129 -0.494,-0.251 -0.737,-0.386c-0.446,-0.239 -0.887,-0.487 -1.323,-0.742c-0.147,-0.083 -0.298,-0.163 -0.446,-0.249c-0.58,-0.343 -1.155,-0.695 -1.724,-1.056c-0.156,-0.1 -0.31,-0.206 -0.465,-0.31c-0.413,-0.265 -0.822,-0.537 -1.226,-0.815c-0.135,-0.09 -0.264,-0.188 -0.396,-0.277c-0.39,-0.275 -0.775,-0.555 -1.159,-0.838c-0.174,-0.129 -0.345,-0.26 -0.514,-0.389c-0.509,-0.391 -1.013,-0.788 -1.513,-1.191c-0.439,-0.36 -0.873,-0.726 -1.302,-1.098l-0.144,-0.12c-0.463,-0.408 -0.919,-0.823 -1.369,-1.245c-0.131,-0.125 -0.258,-0.246 -0.386,-0.371c-0.334,-0.316 -0.662,-0.638 -0.984,-0.965c-0.129,-0.129 -0.259,-0.256 -0.386,-0.385c-0.41,-0.42 -0.812,-0.846 -1.207,-1.277l-0.06,-0.063c-0.417,-0.457 -0.826,-0.922 -1.225,-1.394c-0.108,-0.13 -0.214,-0.254 -0.321,-0.381c-0.299,-0.359 -0.593,-0.723 -0.881,-1.09c-0.109,-0.133 -0.217,-0.267 -0.323,-0.402c-0.347,-0.45 -0.686,-0.899 -1.018,-1.355c-9.183,-12.524 -12.481,-29.8 -5.143,-43.987" style="fill:#0868ac;fill-rule:nonzero;"/><path d="M31.852,11.207c-6.027,8.674 -5.7,20.286 -0.998,29.46c0.787,1.542 1.678,3.029 2.666,4.451c0.903,1.294 1.904,2.834 3.103,3.875c0.435,0.479 0.889,0.945 1.353,1.404c0.117,0.12 0.237,0.234 0.356,0.352c0.45,0.437 0.908,0.867 1.382,1.284c0.02,0.015 0.037,0.034 0.056,0.049c0.006,0.005 0.011,0.007 0.014,0.013c0.523,0.459 1.064,0.901 1.614,1.335c0.122,0.093 0.242,0.19 0.366,0.286c0.55,0.422 1.112,0.837 1.688,1.233c0.018,0.012 0.032,0.024 0.049,0.037c0.254,0.176 0.513,0.339 0.771,0.508c0.123,0.08 0.24,0.166 0.365,0.241c0.411,0.264 0.827,0.521 1.251,0.767c0.061,0.037 0.118,0.068 0.177,0.103c0.365,0.21 0.735,0.417 1.106,0.617c0.13,0.073 0.261,0.137 0.394,0.205c0.256,0.135 0.513,0.271 0.773,0.4c0.039,0.02 0.079,0.037 0.117,0.054c0.531,0.262 1.066,0.514 1.613,0.752c0.117,0.052 0.238,0.098 0.356,0.146c0.438,0.186 0.879,0.367 1.323,0.537c0.188,0.071 0.379,0.14 0.566,0.208c0.403,0.149 0.808,0.286 1.215,0.423c0.185,0.059 0.365,0.119 0.55,0.176c0.579,0.18 1.152,0.407 1.756,0.508c31.123,5.156 38.309,-18.807 38.309,-18.807c-6.478,9.329 -19.021,13.779 -32.405,10.305c-0.771,-0.203 -1.536,-0.43 -2.292,-0.681c-0.602,-0.195 -1.199,-0.406 -1.79,-0.633c-0.446,-0.17 -0.888,-0.349 -1.327,-0.535c-0.119,-0.051 -0.24,-0.098 -0.357,-0.151c-0.547,-0.238 -1.088,-0.49 -1.623,-0.754c-0.275,-0.134 -0.545,-0.276 -0.814,-0.415l-0.47,-0.242c-0.347,-0.188 -0.69,-0.382 -1.03,-0.581c-0.081,-0.046 -0.165,-0.091 -0.247,-0.139c-0.421,-0.247 -0.836,-0.5 -1.247,-0.762c-0.127,-0.081 -0.249,-0.168 -0.376,-0.251c-0.272,-0.176 -0.541,-0.354 -0.809,-0.535c-0.57,-0.397 -1.131,-0.807 -1.682,-1.23c-0.127,-0.1 -0.254,-0.198 -0.379,-0.298c-5.859,-4.626 -10.503,-10.947 -12.711,-18.115c-2.314,-7.434 -1.815,-15.779 2.194,-22.551" style="fill:#0868ac;fill-rule:nonzero;"/><path d="M53.613,3.666c-3.553,5.229 -3.902,11.724 -1.437,17.5c2.601,6.13 7.929,10.94 14.147,13.22c0.256,0.096 0.513,0.181 0.772,0.269c0.113,0.034 0.226,0.074 0.341,0.107c0.366,0.115 0.729,0.249 1.108,0.32c17.185,3.32 21.846,-8.818 23.087,-10.605c-4.083,5.879 -10.945,7.29 -19.364,5.247c-0.689,-0.176 -1.369,-0.386 -2.037,-0.629c-0.824,-0.292 -1.631,-0.628 -2.419,-1.005c-1.496,-0.72 -2.917,-1.587 -4.241,-2.588c-7.534,-5.716 -12.214,-16.621 -7.298,-25.502" style="fill:#0868ac;fill-rule:nonzero;"/></svg>