<?xml version="1.0" standalone="no"?>
<!DOCTYPE svg PUBLIC "-//W3C//DTD SVG 1.1//EN" "http://www.w3.org/Graphics/SVG/1.1/DTD/svg11.dtd" >
<svg xmlns="http://www.w3.org/2000/svg" xmlns:xlink="http://www.w3.org/1999/xlink" version="1.1">
<metadata>
Created by FontForge 20150318 at Wed Apr 29 09:00:37 2015
 By uniteet7
Copyright (c) 2008 by Jan Schmoeger/Paragraph. All rights reserved.
</metadata>
<defs>
<font id="galettemed" horiz-adv-x="560" >
  <font-face 
    font-family="galettemed"
    font-weight="500"
    font-stretch="normal"
    units-per-em="1000"
    panose-1="2 11 6 6 3 6 0 0 0 4"
    ascent="750"
    descent="-250"
    x-height="500"
    cap-height="700"
    bbox="-65 -230 1020 960"
    underline-thickness="50"
    underline-position="-50"
    unicode-range="U+0020-FB02"
  />
<missing-glyph horiz-adv-x="570" 
d="M60 0v750h450v-750h-450zM174 680l111 -224l110 224h-221zM285 294l-111 -224h221zM245 375l-105 213v-426zM325 375l105 -213v426z" />
    <glyph glyph-name="fi" unicode="fi" horiz-adv-x="460" 
d="M200 630q-24 0 -42 -19.5t-18 -46.5v-64h120v-70h-120v-430h-80v564q0 57 40.5 96.5t99.5 39.5h200v-70h-200zM320 0v500h80v-500h-80z" />
    <glyph glyph-name="fl" unicode="fl" horiz-adv-x="460" 
d="M200 630q-24 0 -42 -19.5t-18 -46.5v-64h120v-70h-120v-430h-80v564q0 57 40.5 96.5t99.5 39.5h200v-700h-80v630h-120z" />
    <glyph glyph-name=".notdef" horiz-adv-x="570" 
d="M60 0v750h450v-750h-450zM174 680l111 -224l110 224h-221zM285 294l-111 -224h221zM245 375l-105 213v-426zM325 375l105 -213v426z" />
    <glyph glyph-name=".null" horiz-adv-x="0" 
 />
    <glyph glyph-name="nonmarkingreturn" horiz-adv-x="333" 
 />
    <glyph glyph-name="space" unicode=" " horiz-adv-x="220" 
 />
    <glyph glyph-name="exclam" unicode="!" horiz-adv-x="210" 
d="M65 160v540h80v-540h-80zM60 0v90h90v-90h-90z" />
    <glyph glyph-name="quotedbl" unicode="&#x22;" horiz-adv-x="340" 
d="M280 700v-190h-80v190h80zM140 700v-190h-80v190h80z" />
    <glyph glyph-name="numbersign" unicode="#" horiz-adv-x="600" 
d="M40 430v70h120v200h80v-200h120v200h80v-200h120v-70h-120v-160h120v-70h-120v-200h-80v200h-120v-200h-80v200h-120v70h120v160h-120zM240 430v-160h120v160h-120z" />
    <glyph glyph-name="dollar" unicode="$" horiz-adv-x="530" 
d="M230 -90v90h-170v70h170v289l-60 13q-58 13 -94 57.5t-36 105.5q0 69 49 117t118 48h23v50h80v-50h140v-70h-140v-212l15 -3q72 -15 118 -73t46 -132q0 -79 -51.5 -138t-127.5 -70v-92h-80zM410 210q0 47 -29 85.5t-71 47.5v-267q43 13 71.5 50t28.5 84zM120 535
q0 -32 20 -58.5t50 -33.5l40 -9v196h-14q-39 0 -67.5 -28t-28.5 -67z" />
    <glyph glyph-name="percent" unicode="%" horiz-adv-x="720" 
d="M380 150q0 62 44 106t106 44t106 -44t44 -106t-44 -106t-106 -44t-106 44t-44 106zM450 150q0 -33 23.5 -56.5t56.5 -23.5t56.5 23.5t23.5 56.5t-23.5 56.5t-56.5 23.5t-56.5 -23.5t-23.5 -56.5zM40 550q0 62 44 106t106 44t106 -44t44 -106t-44 -106t-106 -44t-106 44
t-44 106zM110 550q0 -33 23.5 -56.5t56.5 -23.5t56.5 23.5t23.5 56.5t-23.5 56.5t-56.5 23.5t-56.5 -23.5t-23.5 -56.5zM100 0l434 700h86l-434 -700h-86z" />
    <glyph glyph-name="ampersand" unicode="&#x26;" horiz-adv-x="610" 
d="M500 0h-238q-86 0 -149 59.5t-63 143.5v75q0 91 76 146q-57 49 -57 121q0 65 45.5 110t109.5 45h276v-70h-266q-34 0 -59 -25t-25 -60t23.5 -61t56.5 -26h190v92h80v-92h80v-71h-80v-387zM131 201q0 -54 38.5 -92.5t92.5 -38.5h158v317h-186q-43 0 -73 -30.5t-30 -72.5
v-83z" />
    <glyph glyph-name="quotesingle" unicode="'" horiz-adv-x="200" 
d="M140 700v-190h-80v190h80z" />
    <glyph glyph-name="parenleft" unicode="(" horiz-adv-x="290" 
d="M140 420v-230q0 -53 13.5 -106.5t32.5 -92t38 -69.5t32 -46l14 -16h-80q-5 5 -14 15t-31.5 43.5t-39.5 69t-31 91t-14 111.5v231q0 56 13.5 110t32.5 92t38 68t32 45l14 14h80q-5 -6 -14 -16.5t-31.5 -45t-39.5 -70.5t-31 -90.5t-14 -107.5z" />
    <glyph glyph-name="parenright" unicode=")" horiz-adv-x="290" 
d="M150 190v230q0 53 -13.5 106.5t-32.5 92t-38 69.5t-32 46l-14 16h80q5 -5 14 -15t31.5 -43.5t39.5 -69t31 -90.5t14 -111v-231q0 -56 -13.5 -110.5t-32.5 -92.5t-38 -68t-32 -45l-14 -14h-80q5 6 14 16.5t31.5 45t39.5 70.5t31 90.5t14 107.5z" />
    <glyph glyph-name="asterisk" unicode="*" horiz-adv-x="460" 
d="M422 530l-132 -37q80 -104 85 -109l-66 -48l-78 116l-77 -116l-67 47l86 110l-134 38l25 77l131 -47l-4 139h80l-5 -139l130 47z" />
    <glyph glyph-name="plus" unicode="+" 
d="M40 220v70h200v210h80v-210h200v-70h-200v-220h-80v220h-200z" />
    <glyph glyph-name="comma" unicode="," horiz-adv-x="210" 
d="M60 -120v210h90l-10 -210h-80z" />
    <glyph glyph-name="hyphen" unicode="-" horiz-adv-x="330" 
d="M40 220v70h250v-70h-250z" />
    <glyph glyph-name="period" unicode="." horiz-adv-x="210" 
d="M60 0v90h90v-90h-90z" />
    <glyph glyph-name="slash" unicode="/" horiz-adv-x="400" 
d="M20 0l276 700h84l-276 -700h-84z" />
    <glyph glyph-name="zero" unicode="0" horiz-adv-x="550" 
d="M420 174v352q0 42 -30.5 73t-72.5 31h-83q-43 0 -73.5 -31t-30.5 -73v-352q0 -43 30.5 -73.5t73.5 -30.5h83q42 0 72.5 30.5t30.5 73.5zM500 517v-334q0 -76 -53.5 -129.5t-129.5 -53.5h-83q-76 0 -130 53.5t-54 129.5v334q0 76 54 129.5t130 53.5h83q76 0 129.5 -53.5
t53.5 -129.5z" />
    <glyph glyph-name="one" unicode="1" horiz-adv-x="250" 
d="M30 630v70h160v-700h-80v630h-80z" />
    <glyph glyph-name="two" unicode="2" horiz-adv-x="550" 
d="M140 216v-146h350v-70h-430v216q0 71 46.5 127.5t113.5 71.5l140 31q31 7 50.5 32.5t19.5 57.5q0 38 -27.5 66t-66.5 28h-236v70h246q68 0 116 -48t48 -116q0 -58 -37.5 -103t-92.5 -57l-140 -31q-43 -10 -71.5 -46.5t-28.5 -82.5z" />
    <glyph glyph-name="three" unicode="3" horiz-adv-x="500" 
d="M250 0h-220v70h220q54 0 92 38t38 92v84q0 42 -30.5 72.5t-72.5 30.5h-207v71h210q33 0 56.5 26t23.5 61t-24.5 60t-58.5 25h-247v70h257q64 0 108.5 -45t44.5 -110q0 -35 -16.5 -68t-43.5 -52q34 -23 57 -65t23 -86v-71q0 -84 -62.5 -143.5t-147.5 -59.5z" />
    <glyph glyph-name="four" unicode="4" horiz-adv-x="540" 
d="M360 0v190h-340l270 510h90l-236 -440h216v240h80v-240h70v-70h-70v-190h-80z" />
    <glyph glyph-name="five" unicode="5" horiz-adv-x="530" 
d="M480 274v-74q0 -82 -62 -141t-148 -59h-210v70h210q55 0 92.5 38t37.5 92v84q0 42 -30.5 72.5t-72.5 30.5h-237v313h380v-70h-300v-172h155q76 0 130.5 -54t54.5 -130z" />
    <glyph glyph-name="six" unicode="6" horiz-adv-x="550" 
d="M131 526v-68h186q76 0 129.5 -53.5t53.5 -129.5v-73q0 -84 -63 -143t-149 -59h-26q-86 0 -149 59t-63 143v315q0 76 54 129.5t130 53.5h226v-70h-226q-42 0 -72.5 -31t-30.5 -73zM317 387h-186v-186q0 -54 38.5 -92.5t92.5 -38.5h26q55 0 93.5 38.5t38.5 92.5v83
q0 42 -30.5 72.5t-72.5 30.5z" />
    <glyph glyph-name="seven" unicode="7" horiz-adv-x="480" 
d="M30 630v70h430l-352 -700h-88l318 630h-308z" />
    <glyph glyph-name="eight" unicode="8" horiz-adv-x="550" 
d="M290 0h-30q-85 0 -147.5 59.5t-62.5 143.5v71q0 43 22.5 83t57.5 65q-27 22 -43.5 55t-16.5 68q0 65 45 110t109 45h103q64 0 108.5 -45t44.5 -110q0 -35 -16.5 -68t-43.5 -55q35 -25 57.5 -65t22.5 -83v-71q0 -84 -62 -143.5t-148 -59.5zM130 200q0 -53 37.5 -91.5
t89.5 -38.5h37q52 0 89 38.5t37 91.5v84q0 42 -30.5 72.5t-72.5 30.5h-83q-43 0 -73.5 -30.5t-30.5 -72.5v-84zM150 545q0 -35 23.5 -61t56.5 -26h90q33 0 56.5 26t23.5 61t-24.5 60t-58.5 25h-83q-34 0 -59 -25t-25 -60z" />
    <glyph glyph-name="nine" unicode="9" horiz-adv-x="540" 
d="M223 700h84q76 0 129.5 -53.5t53.5 -129.5v-317q0 -84 -62 -142t-148 -58h-200v70h200q54 0 92 38t38 92v115h-187q-76 0 -129.5 54t-53.5 131v17q0 76 53.5 129.5t129.5 53.5zM307 630h-84q-42 0 -72.5 -31t-30.5 -73v-36q0 -42 30.5 -73.5t72.5 -31.5h187v141
q0 42 -30.5 73t-72.5 31z" />
    <glyph glyph-name="colon" unicode=":" horiz-adv-x="210" 
d="M60 410v90h90v-90h-90zM60 0v90h90v-90h-90z" />
    <glyph glyph-name="semicolon" unicode=";" horiz-adv-x="210" 
d="M60 410v90h90v-90h-90zM60 -120v210h90l-10 -210h-80z" />
    <glyph glyph-name="less" unicode="&#x3c;" horiz-adv-x="520" 
d="M40 223v54l440 233v-75l-350 -185l350 -185v-75z" />
    <glyph glyph-name="equal" unicode="=" 
d="M40 130v70h480v-70h-480zM40 310v70h480v-70h-480z" />
    <glyph glyph-name="greater" unicode="&#x3e;" horiz-adv-x="520" 
d="M480 277v-54l-440 -233v75l350 185l-350 185v75z" />
    <glyph glyph-name="question" unicode="?" horiz-adv-x="480" 
d="M55 0v90h90v-90h-90zM140 270v-110h-80v110q0 52 34.5 94t85.5 54l115 27q29 7 49.5 33t20.5 57q0 38 -28 66.5t-67 28.5h-230v70h240q68 0 116.5 -49t48.5 -116q0 -58 -35.5 -101.5t-89.5 -55.5l-115 -26q-28 -6 -46.5 -29.5t-18.5 -52.5z" />
    <glyph glyph-name="at" unicode="@" horiz-adv-x="740" 
d="M210 286v157q0 44 31.5 75.5t75.5 31.5h198v-330h30q27 0 46 19t19 46v195q0 62 -44 106t-106 44h-180q-62 0 -106 -44t-44 -106v-220q0 -78 56 -134t134 -56h340v-70h-350q-108 0 -184 75.5t-76 184.5v220q0 92 64 156t156 64h200q92 0 156 -64t64 -156v-194
q0 -57 -39.5 -96.5t-95.5 -39.5h-209q-56 0 -96 39.5t-40 96.5zM290 443v-158q0 -27 19.5 -46t45.5 -19h80v260h-108q-15 0 -26 -11t-11 -26z" />
    <glyph glyph-name="A" unicode="A" 
d="M20 0l220 700h80l220 -700h-84l-65 210h-222l-65 -210h-84zM280 570l-90 -290h179z" />
    <glyph glyph-name="B" unicode="B" horiz-adv-x="550" 
d="M140 630v-172h174q35 0 60.5 25t25.5 60t-25.5 61t-60.5 26h-174zM480 543q0 -36 -17.5 -69.5t-45.5 -51.5q41 -22 67 -70t26 -99v-48q0 -85 -60 -145t-145 -60h-245v700h264q65 0 110.5 -46t45.5 -111zM305 387h-165v-317h165q50 0 87.5 37.5t37.5 87.5v68
q0 51 -37 87.5t-88 36.5z" />
    <glyph glyph-name="C" unicode="C" horiz-adv-x="500" 
d="M470 0h-167q-105 0 -179 74t-74 179v261q0 77 54.5 131.5t131.5 54.5h234v-70h-234q-43 0 -74.5 -31.5t-31.5 -74.5v-280q0 -71 51 -122.5t122 -51.5h167v-70z" />
    <glyph glyph-name="D" unicode="D" 
d="M60 0v700h263q77 0 132 -54t55 -131v-262q0 -105 -74.5 -179t-180.5 -74h-195zM326 630h-186v-560h120q71 0 120.5 51t49.5 123v281q0 43 -30.5 74t-73.5 31z" />
    <glyph glyph-name="E" unicode="E" horiz-adv-x="500" 
d="M60 0v700h410v-70h-330v-172h290v-71h-290v-317h330v-70h-410z" />
    <glyph glyph-name="F" unicode="F" horiz-adv-x="500" 
d="M60 0v700h410v-70h-330v-172h290v-71h-290v-387h-80z" />
    <glyph glyph-name="G" unicode="G" 
d="M280 387v71h220v-458h-196q-106 0 -180 74t-74 179v261q0 77 54.5 131.5t131.5 54.5h244v-70h-244q-43 0 -74.5 -31.5t-31.5 -74.5v-280q0 -71 51.5 -122.5t122.5 -51.5h116v317h-140z" />
    <glyph glyph-name="H" unicode="H" horiz-adv-x="570" 
d="M430 0v387h-290v-387h-80v700h80v-242h290v242h80v-700h-80z" />
    <glyph glyph-name="I" unicode="I" horiz-adv-x="200" 
d="M60 0v700h80v-700h-80z" />
    <glyph glyph-name="J" unicode="J" horiz-adv-x="280" 
d="M140 166v534h80v-524q0 -77 -57 -131.5t-138 -54.5v70q47 0 81 31.5t34 74.5z" />
    <glyph glyph-name="K" unicode="K" horiz-adv-x="590" 
d="M60 0v700h80v-700h-80zM464 0l-324 415l310 285h110l-315 -290l320 -410h-101z" />
    <glyph glyph-name="L" unicode="L" horiz-adv-x="510" 
d="M60 0v700h80v-630h340v-70h-420z" />
    <glyph glyph-name="M" unicode="M" horiz-adv-x="630" 
d="M315 404l170 296h85v-700h-80v550l-175 -300l-175 300v-550h-80v700h85z" />
    <glyph glyph-name="N" unicode="N" horiz-adv-x="570" 
d="M60 0v700h83l287 -540v540h80v-700h-82l-288 540v-540h-80z" />
    <glyph glyph-name="O" unicode="O" 
d="M296 0h-31q-89 0 -152 63t-63 152v299q0 77 54.5 131.5t131.5 54.5h89q77 0 131 -54.5t54 -131.5v-299q0 -89 -62.5 -152t-151.5 -63zM265 70h31q55 0 94.5 40t39.5 95v319q0 43 -31 74.5t-74 31.5h-91q-43 0 -73.5 -31.5t-30.5 -74.5v-319q0 -55 40 -95t95 -40z" />
    <glyph glyph-name="P" unicode="P" horiz-adv-x="530" 
d="M340 387h-200v-387h-80v700h280q66 0 113 -46t47 -111t-47 -110.5t-113 -45.5zM140 458h193q35 0 61 25.5t26 59.5q0 35 -26 61t-61 26h-193v-172z" />
    <glyph glyph-name="Q" unicode="Q" 
d="M457 -60l-65 83q-44 -23 -96 -23h-31q-89 0 -152 63t-63 152v299q0 77 54.5 131.5t131.5 54.5h89q77 0 131 -54.5t54 -131.5v-299q0 -90 -64 -154l64 -81zM265 70h31q28 0 51 10l-77 99l53 40l77 -99q30 38 30 85v319q0 43 -31 74.5t-74 31.5h-91q-43 0 -73.5 -31.5
t-30.5 -74.5v-319q0 -55 40 -95t95 -40z" />
    <glyph glyph-name="R" unicode="R" horiz-adv-x="550" 
d="M500 544q0 -60 -42 -105.5t-100 -51.5q18 -13 27 -37l145 -350h-88l-133 326q-26 61 -99 61h-70v-387h-80v700h284q65 0 110.5 -45.5t45.5 -110.5zM140 458h194q34 0 59.5 25.5t25.5 60.5t-25 60.5t-60 25.5h-194v-172z" />
    <glyph glyph-name="S" unicode="S" horiz-adv-x="530" 
d="M279 0h-219v70h210q57 0 98.5 41t41.5 99q0 47 -29 85.5t-71 47.5l-140 29q-58 12 -94 57t-36 106q0 69 49 117t118 48h243v-70h-234q-39 0 -67.5 -28t-28.5 -67q0 -31 20.5 -58.5t49.5 -33.5l135 -28q72 -15 118 -73t46 -132q0 -87 -61.5 -148.5t-148.5 -61.5z" />
    <glyph glyph-name="T" unicode="T" horiz-adv-x="510" 
d="M30 630v70h450v-70h-185v-630h-80v630h-185z" />
    <glyph glyph-name="U" unicode="U" horiz-adv-x="570" 
d="M510 700v-485q0 -89 -62.5 -152t-151.5 -63h-21q-89 0 -152 63t-63 152v485h80v-495q0 -55 40 -95t95 -40h21q55 0 94.5 39.5t39.5 95.5v495h80z" />
    <glyph glyph-name="V" unicode="V" 
d="M240 0l-220 700h84l176 -570l176 570h84l-220 -700h-80z" />
    <glyph glyph-name="W" unicode="W" horiz-adv-x="995" 
d="M240 0l-220 700h84l176 -570l176 570h84l176 -570l176 570h84l-220 -700h-80l-178 570l-178 -570h-80z" />
    <glyph glyph-name="X" unicode="X" horiz-adv-x="510" 
d="M20 0l190 369l-170 331h90l125 -245l125 245h90l-170 -331l190 -369h-90l-145 285l-145 -285h-90z" />
    <glyph glyph-name="Y" unicode="Y" horiz-adv-x="520" 
d="M300 0h-80v370l-200 330h92l148 -250l148 250h92l-200 -330v-370z" />
    <glyph glyph-name="Z" unicode="Z" horiz-adv-x="490" 
d="M40 630v70h435l-330 -630h315v-70h-440l330 630h-310z" />
    <glyph glyph-name="bracketleft" unicode="[" horiz-adv-x="300" 
d="M60 -140v890h210v-70h-130v-750h130v-70h-210z" />
    <glyph glyph-name="backslash" unicode="\" horiz-adv-x="400" 
d="M104 700l276 -700h-84l-276 700h84z" />
    <glyph glyph-name="bracketright" unicode="]" horiz-adv-x="300" 
d="M240 750v-890h-210v70h130v750h-130v70h210z" />
    <glyph glyph-name="asciicircum" unicode="^" horiz-adv-x="550" 
d="M240 700h70l210 -440h-78l-167 355l-167 -355h-78z" />
    <glyph glyph-name="underscore" unicode="_" horiz-adv-x="480" 
d="M0 -140v70h480v-70h-480z" />
    <glyph glyph-name="grave" unicode="`" horiz-adv-x="330" 
d="M50 700h85l140 -140h-85z" />
    <glyph glyph-name="a" unicode="a" horiz-adv-x="470" 
d="M120 136q0 -27 15.5 -46.5t39.5 -19.5h155v170l-163 -40q-21 -5 -34 -22.5t-13 -41.5zM275 430h-195v70h195q56 0 95.5 -39t39.5 -95v-366h-235q-58 0 -96.5 39.5t-38.5 96.5q0 45 32 83t78 49l180 43v64q0 23 -16 39t-39 16z" />
    <glyph glyph-name="b" unicode="b" horiz-adv-x="480" 
d="M60 0v700h80v-200h154q57 0 96.5 -39.5t39.5 -95.5v-172q0 -80 -56.5 -136.5t-136.5 -56.5h-177zM350 183v191q0 23 -16.5 39.5t-39.5 16.5h-154v-360h97q47 0 80 33t33 80z" />
    <glyph glyph-name="c" unicode="c" horiz-adv-x="420" 
d="M390 0h-157q-76 0 -129.5 53.5t-53.5 129.5v182q0 56 39.5 95.5t96.5 39.5h204v-70h-204q-23 0 -39.5 -16.5t-16.5 -39.5v-200q0 -43 30.5 -73.5t72.5 -30.5h157v-70z" />
    <glyph glyph-name="d" unicode="d" horiz-adv-x="480" 
d="M420 700v-700h-177q-80 0 -136.5 56.5t-56.5 136.5v172q0 56 39.5 95.5t96.5 39.5h154v200h80zM130 374v-191q0 -47 33 -80t80 -33h97v360h-154q-23 0 -39.5 -16.5t-16.5 -39.5z" />
    <glyph glyph-name="e" unicode="e" horiz-adv-x="460" 
d="M130 365v-103l163 40q21 5 34 21.5t13 41.5q0 26 -18 45.5t-42 19.5h-90q-25 0 -42.5 -19.5t-17.5 -45.5zM400 70v-70h-158q-80 0 -136 56.5t-56 136.5v172q0 56 41 95.5t99 39.5h90q58 0 99 -39.5t41 -95.5q0 -47 -31.5 -84.5t-77.5 -48.5l-181 -44v-5q0 -47 33 -80
t79 -33h158z" />
    <glyph glyph-name="f" unicode="f" horiz-adv-x="300" 
d="M200 630q-25 0 -42.5 -19.5t-17.5 -46.5v-64h130v-70h-130v-430h-80v564q0 57 40.5 96.5t99.5 39.5h70v-70h-70z" />
    <glyph glyph-name="g" unicode="g" horiz-adv-x="480" 
d="M420 500v-540q0 -80 -56 -135t-137 -55h-117v70h117q47 0 80 33t33 80v47h-107q-76 0 -129.5 53.5t-53.5 129.5v182q0 56 39.5 95.5t95.5 39.5h235zM130 174q0 -43 30 -73.5t73 -30.5h107v360h-155q-23 0 -39 -16.5t-16 -39.5v-200z" />
    <glyph glyph-name="h" unicode="h" horiz-adv-x="490" 
d="M140 500h154q57 0 96.5 -39.5t39.5 -95.5v-365h-80v374q0 23 -16.5 39.5t-39.5 16.5h-154v-430h-80v700h80v-200z" />
    <glyph glyph-name="i" unicode="i" horiz-adv-x="200" 
d="M60 0v500h80v-500h-80zM60 600v100h80v-100h-80z" />
    <glyph glyph-name="j" unicode="j" horiz-adv-x="200" 
d="M140 500v-540q0 -80 -60 -135t-145 -55v70q52 0 88.5 33t36.5 80v547h80zM60 600v100h80v-100h-80z" />
    <glyph glyph-name="k" unicode="k" horiz-adv-x="500" 
d="M60 0v700h80v-700h-80zM140 250l236 250h104l-240 -250l240 -250h-104z" />
    <glyph glyph-name="l" unicode="l" horiz-adv-x="200" 
d="M140 0h-80v700h80v-700z" />
    <glyph glyph-name="m" unicode="m" horiz-adv-x="780" 
d="M140 317v-317h-80v500h50l30 -45q45 45 110 45h45q70 0 115 -60q52 60 133 60h42q56 0 95.5 -39.5t39.5 -95.5v-365h-80v374q0 23 -16 39.5t-39 16.5h-42q-47 0 -80 -33t-33 -80v-317h-80v374q0 23 -16 39.5t-39 16.5h-45q-46 0 -78 -33t-32 -80z" />
    <glyph glyph-name="n" unicode="n" horiz-adv-x="490" 
d="M140 317v-317h-80v500h50l30 -45q45 45 113 45h41q57 0 96.5 -39.5t39.5 -95.5v-365h-80v374q0 23 -16.5 39.5t-39.5 16.5h-41q-47 0 -80 -33t-33 -80z" />
    <glyph glyph-name="o" unicode="o" horiz-adv-x="480" 
d="M276 0h-72q-64 0 -109 45t-45 110v210q0 56 39.5 95.5t95.5 39.5h110q56 0 95.5 -39.5t39.5 -95.5v-210q0 -65 -45 -110t-109 -45zM204 70h72q31 0 52.5 22t21.5 53v229q0 23 -16 39.5t-39 16.5h-110q-23 0 -39 -16.5t-16 -39.5v-229q0 -31 21.5 -53t52.5 -22z" />
    <glyph glyph-name="p" unicode="p" horiz-adv-x="480" 
d="M430 365v-172q0 -80 -56.5 -136.5t-136.5 -56.5h-97v-230h-80v730h234q57 0 96.5 -39.5t39.5 -95.5zM140 430v-360h97q47 0 80 33t33 80v191q0 23 -16.5 39.5t-39.5 16.5h-154z" />
    <glyph glyph-name="q" unicode="q" horiz-adv-x="480" 
d="M50 193v172q0 56 39.5 95.5t96.5 39.5h234v-730h-80v230h-97q-80 0 -136.5 56.5t-56.5 136.5zM340 70v360h-154q-23 0 -39.5 -16.5t-16.5 -39.5v-191q0 -47 33 -80t80 -33h97z" />
    <glyph glyph-name="r" unicode="r" horiz-adv-x="400" 
d="M60 0v500h50l30 -45q45 45 110 45h120v-70h-120q-46 0 -78 -32.5t-32 -77.5v-320h-80z" />
    <glyph glyph-name="s" unicode="s" horiz-adv-x="450" 
d="M280 200l-130 33q-48 12 -79 47.5t-31 84.5q0 56 41 95.5t99 39.5h200v-70h-200q-24 0 -42 -19.5t-18 -45.5q0 -23 13 -40.5t33 -22.5l134 -35q48 -12 79 -48t31 -84q0 -56 -41 -95.5t-99 -39.5h-220v70h220q24 0 42 19.5t18 45.5q0 52 -50 65z" />
    <glyph glyph-name="t" unicode="t" horiz-adv-x="290" 
d="M200 70h60v-70h-60q-59 0 -99.5 39t-40.5 95v566h80v-200h120v-70h-120v-296q0 -26 17.5 -45t42.5 -19z" />
    <glyph glyph-name="u" unicode="u" horiz-adv-x="490" 
d="M350 183v317h80v-500h-50l-30 45q-45 -45 -113 -45h-41q-57 0 -96.5 39.5t-39.5 95.5v365h80v-374q0 -23 16.5 -39.5t39.5 -16.5h41q47 0 80 33t33 80z" />
    <glyph glyph-name="v" unicode="v" horiz-adv-x="440" 
d="M220 125l116 375h84l-160 -500h-80l-160 500h84z" />
    <glyph glyph-name="w" unicode="w" horiz-adv-x="750" 
d="M220 125l116 375h78l116 -375l116 375h84l-160 -500h-80l-116 359l-114 -359h-80l-160 500h84z" />
    <glyph glyph-name="x" unicode="x" horiz-adv-x="430" 
d="M320 0l-105 175q-35 -60 -105 -175h-90l150 250l-150 250h90l105 -175q80 132 105 175h90l-150 -250l150 -250h-90z" />
    <glyph glyph-name="y" unicode="y" horiz-adv-x="490" 
d="M350 -47v92q-45 -45 -116 -45h-38q-57 0 -96.5 39.5t-39.5 95.5v365h80v-375q0 -23 16.5 -39t39.5 -16h38q47 0 81.5 32t34.5 78v320h80v-540q0 -79 -57.5 -134.5t-137.5 -55.5h-115v70h117q47 0 80 33t33 80z" />
    <glyph glyph-name="z" unicode="z" horiz-adv-x="425" 
d="M30 430v70h373l-250 -430h242v-70h-375l250 430h-240z" />
    <glyph glyph-name="braceleft" unicode="{" horiz-adv-x="300" 
d="M137 305q48 -41 48 -99v-201q0 -31 24.5 -53t60.5 -22v-70q-69 0 -117 45t-48 110v201q0 23 -16 38.5t-39 15.5h-20v70h20q23 0 39 15.5t16 38.5v201q0 65 48 110t117 45v-70q-36 0 -60.5 -22t-24.5 -53v-201q0 -58 -48 -99z" />
    <glyph glyph-name="bar" unicode="|" horiz-adv-x="200" 
d="M60 0v750h80v-750h-80z" />
    <glyph glyph-name="braceright" unicode="}" horiz-adv-x="300" 
d="M163 305q-48 41 -48 99v201q0 31 -24.5 53t-60.5 22v70q69 0 117 -45t48 -110v-201q0 -23 16 -38.5t39 -15.5h20v-70h-20q-23 0 -39 -15.5t-16 -38.5v-201q0 -65 -48 -110t-117 -45v70q36 0 60.5 22t24.5 53v201q0 58 48 99z" />
    <glyph glyph-name="asciitilde" unicode="~" horiz-adv-x="530" 
d="M110 220h-70q0 51 38.5 88t86.5 37q32 0 62.5 -17t50 -37.5t44.5 -37.5t48 -17q18 0 34 16.5t16 37.5h70q0 -51 -38.5 -88t-86.5 -37q-32 0 -62.5 17t-50 37.5t-44.5 37.5t-48 17q-18 0 -34 -16.5t-16 -37.5z" />
    <glyph glyph-name="exclamdown" unicode="&#xa1;" horiz-adv-x="210" 
d="M65 0v540h80v-540h-80zM60 610v90h90v-90h-90z" />
    <glyph glyph-name="cent" unicode="&#xa2;" horiz-adv-x="440" 
d="M230 -90v90q-75 1 -127.5 54.5t-52.5 128.5v182q0 56 39.5 95.5t96.5 39.5h44v50h80v-50h100v-70h-100v-360h100v-70h-100v-90h-80zM130 174q0 -42 29.5 -72.5t70.5 -31.5v360h-44q-23 0 -39.5 -16.5t-16.5 -39.5v-200z" />
    <glyph glyph-name="sterling" unicode="&#xa3;" horiz-adv-x="520" 
d="M40 0v70q47 0 81 30t34 73v214h-115v71h115v62q0 75 53.5 127.5t129.5 52.5h142v-70h-143q-42 0 -72 -30.5t-30 -72.5v-69h245v-71h-245v-207q0 -62 -40 -110h285v-70h-440z" />
    <glyph glyph-name="currency" unicode="&#xa4;" horiz-adv-x="540" 
d="M321 119h-102q-35 0 -71 18l-44 -58l-62 49l47 61q-24 35 -24 84v172q0 39 24 74q-43 55 -47 60l62 49l44 -57q21 9 52 9h140q30 0 51 -9l45 57l62 -48l-47 -61q24 -35 24 -74v-172q0 -47 -24 -84q7 -8 23.5 -30t23.5 -31l-62 -49l-45 57q-32 -17 -70 -17zM219 189h102
q31 0 52.5 22t21.5 53v190q0 23 -16 39.5t-39 16.5h-140q-23 0 -39 -16.5t-16 -39.5v-190q0 -31 21.5 -53t52.5 -22z" />
    <glyph glyph-name="yen" unicode="&#xa5;" horiz-adv-x="520" 
d="M45 387v71h126l-151 242h92l148 -240l148 240h92l-151 -242h116v-71h-161l-4 -7v-80h165v-70h-165v-230h-80v230h-175v70h175v80l-5 7h-170z" />
    <glyph glyph-name="brokenbar" unicode="&#xa6;" horiz-adv-x="200" 
d="M60 0v300h80v-300h-80zM60 450v300h80v-300h-80z" />
    <glyph glyph-name="section" unicode="&#xa7;" horiz-adv-x="460" 
d="M281 197l-131 33q-48 12 -79 48t-31 87q0 65 50 105q-49 38 -49 98q0 55 40.5 93.5t99.5 38.5h199v-70h-199q-24 0 -42 -18t-18 -44q0 -23 14.5 -41t34.5 -23l140 -34q49 -12 79.5 -49.5t30.5 -88.5q0 -59 -53 -102q43 -40 43 -96q0 -54 -41 -94t-99 -40h-220v70h220
q24 0 42 19.5t18 45.5q0 23 -14 40t-35 22zM291 401l-111 26q-24 -1 -42 -19.5t-18 -42.5q0 -23 15 -42.5t35 -24.5l110 -28q24 1 42 20t18 45q0 23 -14.5 42.5t-34.5 23.5z" />
    <glyph glyph-name="dieresis" unicode="&#xa8;" horiz-adv-x="360" 
d="M50 575v80h80v-80h-80zM230 575v80h80v-80h-80z" />
    <glyph glyph-name="copyright" unicode="&#xa9;" horiz-adv-x="740" 
d="M431 0h-122q-108 0 -183.5 75.5t-75.5 184.5v218q0 92 64.5 157t156.5 65h198q92 0 156.5 -65t64.5 -157v-218q0 -109 -75.5 -184.5t-183.5 -75.5zM319 70h102q78 0 133.5 56t55.5 134v218q0 62 -44.5 107t-106.5 45h-178q-62 0 -106.5 -45t-44.5 -107v-218
q0 -78 55.5 -134t133.5 -56zM355 215h145v-65h-154q-56 0 -96 39.5t-40 96.5v157q0 44 31.5 75.5t75.5 31.5h183v-66h-176q-18 0 -30.5 -13t-12.5 -31v-150q0 -31 21.5 -53t52.5 -22z" />
    <glyph glyph-name="ordfeminine" unicode="&#xaa;" horiz-adv-x="330" 
d="M103 482q0 -12 8.5 -22t18.5 -10h77v82l-81 -20q-23 -6 -23 -30zM184 640h-124v60h127q37 0 62.5 -26t25.5 -64v-220h-145q-38 0 -64 26.5t-26 63.5q0 30 19 53t49 31l99 26v26q0 9 -6.5 16.5t-16.5 7.5z" />
    <glyph glyph-name="guillemotleft" unicode="&#xab;" horiz-adv-x="470" 
d="M350 50l-140 200l140 200h87l-140 -200l140 -200h-87zM170 50l-140 200l140 200h87l-140 -200l140 -200h-87z" />
    <glyph glyph-name="logicalnot" unicode="&#xac;" horiz-adv-x="580" 
d="M40 290v70h480v-210h-80v140h-400z" />
    <glyph glyph-name="registered" unicode="&#xae;" horiz-adv-x="740" 
d="M433 350l98 -200h-77l-83 175q-10 22 -35 22h-31v-197h-75v400h173q42 0 72 -30t30 -72q0 -32 -21 -59t-51 -39zM305 410h88q15 0 26 10.5t11 26.5t-11 26.5t-26 10.5h-88v-74zM431 0h-122q-108 0 -183.5 75.5t-75.5 184.5v218q0 92 64.5 157t156.5 65h198
q92 0 156.5 -65t64.5 -157v-218q0 -109 -75.5 -184.5t-183.5 -75.5zM319 70h102q78 0 133.5 56t55.5 134v218q0 62 -44.5 107t-106.5 45h-178q-62 0 -106.5 -45t-44.5 -107v-218q0 -78 55.5 -134t133.5 -56z" />
    <glyph glyph-name="macron" unicode="&#xaf;" horiz-adv-x="340" 
d="M55 570v60h230v-60h-230z" />
    <glyph glyph-name="degree" unicode="&#xb0;" horiz-adv-x="370" 
d="M55 570q0 54 38 92t92 38t92 -38t38 -92t-38 -92t-92 -38t-92 38t-38 92zM125 570q0 -25 17.5 -42.5t42.5 -17.5t42.5 17.5t17.5 42.5t-17.5 42.5t-42.5 17.5t-42.5 -17.5t-17.5 -42.5z" />
    <glyph glyph-name="plusminus" unicode="&#xb1;" 
d="M40 280v70h200v170h80v-170h200v-70h-200v-170h-80v170h-200zM40 0v70h480v-70h-480z" />
    <glyph glyph-name="twosuperior" unicode="&#xb2;" horiz-adv-x="330" 
d="M120 450v-40h160v-60h-230v100q0 39 23.5 70t61.5 40l62 15q9 2 16 11.5t7 20.5q0 13 -10 23t-22 10h-118v60h123q40 0 68.5 -27.5t28.5 -65.5q0 -33 -20.5 -57.5t-51.5 -32.5l-58 -14q-16 -4 -28 -19.5t-12 -33.5z" />
    <glyph glyph-name="threesuperior" unicode="&#xb3;" horiz-adv-x="310" 
d="M152 350h-112v60h113q21 0 35.5 14.5t14.5 35.5v30q0 15 -10.5 25t-25.5 10h-107v60h110q10 0 18 8.5t8 18.5q0 11 -8 19.5t-18 8.5h-130v60h130q36 0 64.5 -26t28.5 -62q0 -33 -27 -58q37 -33 37 -71v-21q0 -46 -37 -79t-84 -33z" />
    <glyph glyph-name="acute" unicode="&#xb4;" horiz-adv-x="330" 
d="M190 700h85l-139 -140h-86z" />
    <glyph glyph-name="mu" unicode="&#xb5;" horiz-adv-x="490" 
d="M60 -170v670h80v-374q0 -23 16.5 -39.5t39.5 -16.5h41q47 0 80 33t33 80v317h80v-500h-50l-30 45q-45 -45 -113 -45h-41q-29 0 -56 11v-181h-80z" />
    <glyph glyph-name="mu" unicode="&#x3bc;" horiz-adv-x="490" 
d="M60 -170v670h80v-374q0 -23 16.5 -39.5t39.5 -16.5h41q47 0 80 33t33 80v317h80v-500h-50l-30 45q-45 -45 -113 -45h-41q-29 0 -56 11v-181h-80z" />
    <glyph glyph-name="paragraph" unicode="&#xb6;" horiz-adv-x="550" 
d="M410 0v630h-90v-630h-80v440h-70q-54 0 -92 38t-38 92q0 55 38 92.5t92 37.5h320v-700h-80zM120 570q0 -24 17.5 -42t42.5 -18h60v120h-60q-25 0 -42.5 -17.5t-17.5 -42.5z" />
    <glyph glyph-name="periodcentered" unicode="&#xb7;" horiz-adv-x="210" 
d="M60 310v90h90v-90h-90z" />
    <glyph glyph-name="cedilla" unicode="&#xb8;" horiz-adv-x="300" 
d="M185 10l-20 -40q34 -4 57 -30t23 -60q0 -37 -28.5 -63.5t-66.5 -26.5q-22 0 -46 5.5t-36 10.5l-13 6v60q49 -24 80 -24q19 0 32 11t13 26q0 19 -11.5 29.5t-28.5 10.5h-50l35 85h60z" />
    <glyph glyph-name="onesuperior" unicode="&#xb9;" horiz-adv-x="210" 
d="M40 640v60h110v-350h-70v290h-40z" />
    <glyph glyph-name="ordmasculine" unicode="&#xba;" horiz-adv-x="340" 
d="M190 390h-43q-42 0 -69.5 29.5t-27.5 71.5v121q0 38 25 63t63 25h65q37 0 62 -25.5t25 -62.5v-121q0 -42 -29 -71.5t-71 -29.5zM147 450h44q14 0 24 9.5t10 23.5v135q0 8 -6.5 15t-14.5 7h-66q-10 0 -16.5 -7t-6.5 -15v-135q0 -14 9 -23.5t23 -9.5z" />
    <glyph glyph-name="guillemotright" unicode="&#xbb;" horiz-adv-x="470" 
d="M260 250l-140 -200h-87l140 200l-140 200h87zM440 250l-140 -200h-87l140 200l-140 200h87z" />
    <glyph glyph-name="onequarter" unicode="&#xbc;" 
d="M410 210h70v-60h40v-60h-40v-90h-70v90h-160l140 260h77l-108 -200h51v60zM40 640v60h110v-350h-70v290h-40zM30 0l375 700h80l-375 -700h-80z" />
    <glyph glyph-name="onehalf" unicode="&#xbd;" horiz-adv-x="610" 
d="M40 640v60h110v-350h-70v290h-40zM30 0l375 700h80l-375 -700h-80zM400 100v-40h160v-60h-230v100q0 39 23.5 70t61.5 40l62 15q9 2 16 11.5t7 20.5q0 13 -10 23t-22 10h-118v60h123q40 0 68.5 -27.5t28.5 -65.5q0 -33 -20.5 -57.5t-51.5 -32.5l-58 -14q-16 -4 -28 -19.5
t-12 -33.5z" />
    <glyph glyph-name="threequarters" unicode="&#xbe;" horiz-adv-x="610" 
d="M460 210h70v-60h40v-60h-40v-90h-70v90h-160l140 260h77l-108 -200h51v60zM88 0l375 700h80l-375 -700h-80zM136 350h-96v60h97q21 0 35.5 14.5t14.5 35.5v30q0 15 -10.5 25t-25.5 10h-91v60h94q10 0 18 8.5t8 18.5q0 11 -8 19.5t-18 8.5h-114v60h114q36 0 64.5 -26
t28.5 -62q0 -33 -27 -58q37 -33 37 -71v-21q0 -46 -37 -79t-84 -33z" />
    <glyph glyph-name="questiondown" unicode="&#xbf;" horiz-adv-x="480" 
d="M430 700v-90h-90v90h90zM345 430v110h80v-110q0 -52 -34.5 -94t-85.5 -54l-115 -27q-29 -7 -49.5 -33t-20.5 -57q0 -38 28 -66.5t67 -28.5h230v-70h-240q-67 0 -116 49t-49 116q0 58 35.5 101.5t89.5 55.5l115 26q28 6 46.5 29.5t18.5 52.5z" />
    <glyph glyph-name="Agrave" unicode="&#xc0;" 
d="M20 0l220 700h80l220 -700h-84l-65 210h-222l-65 -210h-84zM280 570l-90 -290h179zM168 900h85l140 -140h-85z" />
    <glyph glyph-name="Aacute" unicode="&#xc1;" 
d="M20 0l220 700h80l220 -700h-84l-65 210h-222l-65 -210h-84zM280 570l-90 -290h179zM328 900h85l-139 -140h-86z" />
    <glyph glyph-name="Acircumflex" unicode="&#xc2;" 
d="M20 0l220 700h80l220 -700h-84l-65 210h-222l-65 -210h-84zM280 570l-90 -290h179zM205 760h-85l160 160l160 -160h-85l-75 75z" />
    <glyph glyph-name="Atilde" unicode="&#xc3;" 
d="M20 0l220 700h80l220 -700h-84l-65 210h-222l-65 -210h-84zM280 570l-90 -290h179zM380 865h55q0 -44 -23.5 -72t-69.5 -28q-26 0 -49.5 19.5t-42.5 39t-35 19.5q-15 0 -25 -11.5t-10 -26.5h-55q0 44 23.5 72t69.5 28q26 0 49.5 -19.5t42.5 -39t35 -19.5q15 0 25 11.5
t10 26.5z" />
    <glyph glyph-name="Adieresis" unicode="&#xc4;" 
d="M20 0l220 700h80l220 -700h-84l-65 210h-222l-65 -210h-84zM280 570l-90 -290h179zM150 760v80h80v-80h-80zM330 760v80h80v-80h-80z" />
    <glyph glyph-name="Aring" unicode="&#xc5;" 
d="M20 0l220 700h80l220 -700h-84l-65 210h-222l-65 -210h-84zM280 570l-90 -290h179zM175 855q0 43 30.5 74t74.5 31t74.5 -31t30.5 -74t-30.5 -74t-74.5 -31t-74.5 31t-30.5 74zM230 855q0 -21 14.5 -35.5t35.5 -14.5t35.5 14.5t14.5 35.5t-14.5 35.5t-35.5 14.5
t-35.5 -14.5t-14.5 -35.5z" />
    <glyph glyph-name="AE" unicode="&#xc6;" horiz-adv-x="840" 
d="M20 0l280 700h510v-70h-412l37 -172h335v-71h-320l69 -317h291v-70h-357l-46 210h-221l-84 -210h-82zM329 569l-116 -289h179q-11 54 -32 148.5t-31 140.5z" />
    <glyph glyph-name="Ccedilla" unicode="&#xc7;" horiz-adv-x="500" 
d="M470 0h-135l-15 -30q34 -4 57 -30t23 -60q0 -37 -28.5 -63.5t-66.5 -26.5q-22 0 -46 5.5t-37 10.5l-12 6v60q49 -24 80 -24q19 0 32 11t13 26q0 19 -11.5 29.5t-28.5 10.5h-50l31 76q-96 10 -161 82t-65 170v261q0 77 54.5 131.5t131.5 54.5h234v-70h-234
q-43 0 -74.5 -31.5t-31.5 -74.5v-280q0 -71 51 -122.5t122 -51.5h167v-70z" />
    <glyph glyph-name="Egrave" unicode="&#xc8;" horiz-adv-x="500" 
d="M60 0v700h410v-70h-330v-172h290v-71h-290v-317h330v-70h-410zM148 900h85l140 -140h-85z" />
    <glyph glyph-name="Eacute" unicode="&#xc9;" horiz-adv-x="500" 
d="M60 0v700h410v-70h-330v-172h290v-71h-290v-317h330v-70h-410zM318 900h85l-139 -140h-86z" />
    <glyph glyph-name="Ecircumflex" unicode="&#xca;" horiz-adv-x="500" 
d="M60 0v700h410v-70h-330v-172h290v-71h-290v-317h330v-70h-410zM190 760h-85l160 160l160 -160h-85l-75 75z" />
    <glyph glyph-name="Edieresis" unicode="&#xcb;" horiz-adv-x="500" 
d="M60 0v700h410v-70h-330v-172h290v-71h-290v-317h330v-70h-410zM135 760v80h80v-80h-80zM315 760v80h80v-80h-80z" />
    <glyph glyph-name="Igrave" unicode="&#xcc;" horiz-adv-x="200" 
d="M-25 900h85l80 -80v-60h-26zM60 0v700h80v-700h-80z" />
    <glyph glyph-name="Iacute" unicode="&#xcd;" horiz-adv-x="200" 
d="M140 900h85l-139 -140h-26v60zM60 0v700h80v-700h-80z" />
    <glyph glyph-name="Icircumflex" unicode="&#xce;" horiz-adv-x="200" 
d="M25 760h-25v60l100 100l100 -100v-60h-25l-75 75zM60 0v700h80v-700h-80z" />
    <glyph glyph-name="Idieresis" unicode="&#xcf;" horiz-adv-x="200" 
d="M0 760v80h75v-80h-75zM125 760v80h75v-80h-75zM60 0v700h80v-700h-80z" />
    <glyph glyph-name="Eth" unicode="&#xd0;" horiz-adv-x="620" 
d="M30 387v71h90v242h263q77 0 132 -54.5t55 -131.5v-261q0 -105 -74.5 -179t-179.5 -74h-196v387h-90zM385 630h-185v-172h90v-71h-90v-317h120q71 0 120.5 49.5t49.5 120.5v286q0 43 -31 73.5t-74 30.5z" />
    <glyph glyph-name="Ntilde" unicode="&#xd1;" horiz-adv-x="570" 
d="M60 0v700h83l287 -540v540h80v-700h-82l-288 540v-540h-80zM385 865h55q0 -44 -23.5 -72t-69.5 -28q-26 0 -49.5 19.5t-42.5 39t-35 19.5q-15 0 -25 -11.5t-10 -26.5h-55q0 44 23.5 72t69.5 28q26 0 49.5 -19.5t42.5 -39t35 -19.5q15 0 25 11.5t10 26.5z" />
    <glyph glyph-name="Ograve" unicode="&#xd2;" 
d="M296 0h-31q-89 0 -152 63t-63 152v299q0 77 54.5 131.5t131.5 54.5h89q77 0 131 -54.5t54 -131.5v-299q0 -89 -62.5 -152t-151.5 -63zM265 70h31q55 0 94.5 40t39.5 95v319q0 43 -31 74.5t-74 31.5h-91q-43 0 -73.5 -31.5t-30.5 -74.5v-319q0 -55 40 -95t95 -40zM167 900
h85l140 -140h-85z" />
    <glyph glyph-name="Oacute" unicode="&#xd3;" 
d="M296 0h-31q-89 0 -152 63t-63 152v299q0 77 54.5 131.5t131.5 54.5h89q77 0 131 -54.5t54 -131.5v-299q0 -89 -62.5 -152t-151.5 -63zM265 70h31q55 0 94.5 40t39.5 95v319q0 43 -31 74.5t-74 31.5h-91q-43 0 -73.5 -31.5t-30.5 -74.5v-319q0 -55 40 -95t95 -40zM328 900
h85l-139 -140h-86z" />
    <glyph glyph-name="Ocircumflex" unicode="&#xd4;" 
d="M296 0h-31q-89 0 -152 63t-63 152v299q0 77 54.5 131.5t131.5 54.5h89q77 0 131 -54.5t54 -131.5v-299q0 -89 -62.5 -152t-151.5 -63zM265 70h31q55 0 94.5 40t39.5 95v319q0 43 -31 74.5t-74 31.5h-91q-43 0 -73.5 -31.5t-30.5 -74.5v-319q0 -55 40 -95t95 -40zM205 760
h-85l160 160l160 -160h-85l-75 75z" />
    <glyph glyph-name="Otilde" unicode="&#xd5;" 
d="M296 0h-31q-89 0 -152 63t-63 152v299q0 77 54.5 131.5t131.5 54.5h89q77 0 131 -54.5t54 -131.5v-299q0 -89 -62.5 -152t-151.5 -63zM265 70h31q55 0 94.5 40t39.5 95v319q0 43 -31 74.5t-74 31.5h-91q-43 0 -73.5 -31.5t-30.5 -74.5v-319q0 -55 40 -95t95 -40zM380 865
h55q0 -44 -23.5 -72t-69.5 -28q-26 0 -49.5 19.5t-42.5 39t-35 19.5q-15 0 -25 -11.5t-10 -26.5h-55q0 44 23.5 72t69.5 28q26 0 49.5 -19.5t42.5 -39t35 -19.5q15 0 25 11.5t10 26.5z" />
    <glyph glyph-name="Odieresis" unicode="&#xd6;" 
d="M296 0h-31q-89 0 -152 63t-63 152v299q0 77 54.5 131.5t131.5 54.5h89q77 0 131 -54.5t54 -131.5v-299q0 -89 -62.5 -152t-151.5 -63zM265 70h31q55 0 94.5 40t39.5 95v319q0 43 -31 74.5t-74 31.5h-91q-43 0 -73.5 -31.5t-30.5 -74.5v-319q0 -55 40 -95t95 -40zM150 760
v80h80v-80h-80zM330 760v80h80v-80h-80z" />
    <glyph glyph-name="multiply" unicode="&#xd7;" 
d="M475 0l-195 195l-195 -195l-55 55l195 195l-195 195l55 55l195 -195l195 195l55 -55l-195 -195l195 -195z" />
    <glyph glyph-name="Oslash" unicode="&#xd8;" 
d="M60 -60l51 124q-61 63 -61 151v299q0 77 54.5 131.5t131.5 54.5h89q21 0 47 -7l24 57h84l-38 -92q68 -56 68 -144v-299q0 -89 -62.5 -152t-151.5 -63h-31q-45 0 -88 19l-33 -79h-84zM265 70h31q55 0 94.5 40t39.5 95v319q0 33 -19 60l-207 -500q28 -14 61 -14zM130 205
q0 -33 14 -61l201 484q-12 2 -20 2h-91q-43 0 -73.5 -31.5t-30.5 -74.5v-319z" />
    <glyph glyph-name="Ugrave" unicode="&#xd9;" horiz-adv-x="570" 
d="M510 700v-485q0 -89 -62.5 -152t-151.5 -63h-21q-89 0 -152 63t-63 152v485h80v-495q0 -55 40 -95t95 -40h21q55 0 94.5 39.5t39.5 95.5v495h80zM172 900h85l140 -140h-85z" />
    <glyph glyph-name="Uacute" unicode="&#xda;" horiz-adv-x="570" 
d="M510 700v-485q0 -89 -62.5 -152t-151.5 -63h-21q-89 0 -152 63t-63 152v485h80v-495q0 -55 40 -95t95 -40h21q55 0 94.5 39.5t39.5 95.5v495h80zM333 900h85l-139 -140h-86z" />
    <glyph glyph-name="Ucircumflex" unicode="&#xdb;" horiz-adv-x="570" 
d="M510 700v-485q0 -89 -62.5 -152t-151.5 -63h-21q-89 0 -152 63t-63 152v485h80v-495q0 -55 40 -95t95 -40h21q55 0 94.5 39.5t39.5 95.5v495h80zM210 760h-85l160 160l160 -160h-85l-75 75z" />
    <glyph glyph-name="Udieresis" unicode="&#xdc;" horiz-adv-x="570" 
d="M510 700v-485q0 -89 -62.5 -152t-151.5 -63h-21q-89 0 -152 63t-63 152v485h80v-495q0 -55 40 -95t95 -40h21q55 0 94.5 39.5t39.5 95.5v495h80zM155 760v80h80v-80h-80zM335 760v80h80v-80h-80z" />
    <glyph glyph-name="Yacute" unicode="&#xdd;" horiz-adv-x="520" 
d="M300 0h-80v370l-200 330h92l148 -250l148 250h92l-200 -330v-370zM308 900h85l-139 -140h-86z" />
    <glyph glyph-name="Thorn" unicode="&#xde;" horiz-adv-x="530" 
d="M60 0v700h80v-145h164q77 0 131.5 -54t54.5 -131v-20q0 -76 -54.5 -130.5t-131.5 -54.5h-164v-165h-80zM306 485h-166v-249h166q43 0 73.5 30.5t30.5 73.5v40q0 43 -30.5 74t-73.5 31z" />
    <glyph glyph-name="germandbls" unicode="&#xdf;" horiz-adv-x="470" 
d="M270 0h-65v70h58q39 0 66 31t27 73q0 33 -21 60t-52 36q-37 10 -63 41.5t-26 72.5q0 42 28 75.5t68 40.5v64q0 27 -17.5 46.5t-42.5 19.5h-30q-25 0 -42.5 -19.5t-17.5 -46.5v-564h-80v564q0 57 40.5 96.5t99.5 39.5h30q59 0 99.5 -39.5t40.5 -96.5v-134h-54
q-18 -1 -30 -15t-12 -31q0 -15 10.5 -29t25.5 -18q55 -14 90.5 -59t35.5 -104q0 -71 -48 -122.5t-118 -51.5z" />
    <glyph glyph-name="agrave" unicode="&#xe0;" horiz-adv-x="470" 
d="M120 136q0 -27 15.5 -46.5t39.5 -19.5h155v170l-163 -40q-21 -5 -34 -22.5t-13 -41.5zM275 430h-195v70h195q56 0 95.5 -39t39.5 -95v-366h-235q-58 0 -96.5 39.5t-38.5 96.5q0 45 32 83t78 49l180 43v64q0 23 -16 39t-39 16zM118 700h85l140 -140h-85z" />
    <glyph glyph-name="aacute" unicode="&#xe1;" horiz-adv-x="470" 
d="M120 136q0 -27 15.5 -46.5t39.5 -19.5h155v170l-163 -40q-21 -5 -34 -22.5t-13 -41.5zM275 430h-195v70h195q56 0 95.5 -39t39.5 -95v-366h-235q-58 0 -96.5 39.5t-38.5 96.5q0 45 32 83t78 49l180 43v64q0 23 -16 39t-39 16zM288 700h85l-139 -140h-86z" />
    <glyph glyph-name="acircumflex" unicode="&#xe2;" horiz-adv-x="470" 
d="M120 136q0 -27 15.5 -46.5t39.5 -19.5h155v170l-163 -40q-21 -5 -34 -22.5t-13 -41.5zM275 430h-195v70h195q56 0 95.5 -39t39.5 -95v-366h-235q-58 0 -96.5 39.5t-38.5 96.5q0 45 32 83t78 49l180 43v64q0 23 -16 39t-39 16zM165 560h-85l160 160l160 -160h-85l-75 75z
" />
    <glyph glyph-name="atilde" unicode="&#xe3;" horiz-adv-x="470" 
d="M120 136q0 -27 15.5 -46.5t39.5 -19.5h155v170l-163 -40q-21 -5 -34 -22.5t-13 -41.5zM275 430h-195v70h195q56 0 95.5 -39t39.5 -95v-366h-235q-58 0 -96.5 39.5t-38.5 96.5q0 45 32 83t78 49l180 43v64q0 23 -16 39t-39 16zM335 665h55q0 -44 -23.5 -72t-69.5 -28
q-26 0 -49.5 19.5t-42.5 39t-35 19.5q-15 0 -25 -11.5t-10 -26.5h-55q0 44 23.5 72t69.5 28q26 0 49.5 -19.5t42.5 -39t35 -19.5q15 0 25 11.5t10 26.5z" />
    <glyph glyph-name="adieresis" unicode="&#xe4;" horiz-adv-x="470" 
d="M120 136q0 -27 15.5 -46.5t39.5 -19.5h155v170l-163 -40q-21 -5 -34 -22.5t-13 -41.5zM275 430h-195v70h195q56 0 95.5 -39t39.5 -95v-366h-235q-58 0 -96.5 39.5t-38.5 96.5q0 45 32 83t78 49l180 43v64q0 23 -16 39t-39 16zM105 570v80h80v-80h-80zM285 570v80h80v-80
h-80z" />
    <glyph glyph-name="aring" unicode="&#xe5;" horiz-adv-x="470" 
d="M120 136q0 -27 15.5 -46.5t39.5 -19.5h155v170l-163 -40q-21 -5 -34 -22.5t-13 -41.5zM275 430h-195v70h195q56 0 95.5 -39t39.5 -95v-366h-235q-58 0 -96.5 39.5t-38.5 96.5q0 45 32 83t78 49l180 43v64q0 23 -16 39t-39 16zM130 655q0 43 31 74t74 31t74 -31t31 -74
t-31 -74t-74 -31t-74 31t-31 74zM185 655q0 -21 14.5 -35.5t35.5 -14.5t35.5 14.5t14.5 35.5t-14.5 35.5t-35.5 14.5t-35.5 -14.5t-14.5 -35.5z" />
    <glyph glyph-name="ae" unicode="&#xe6;" horiz-adv-x="740" 
d="M680 70v-70h-158q-63 0 -112 35v-35h-235q-58 0 -96.5 39.5t-38.5 96.5q0 45 32 83t78 49l180 43v64q0 23 -16 39t-39 16h-195v70h195q56 0 96 -40q40 40 99 40h90q58 0 99 -39.5t41 -95.5q0 -47 -31.5 -84.5t-77.5 -48.5l-181 -44v-10q2 -45 34 -76.5t78 -31.5h158z
M120 136q0 -27 15.5 -46.5t39.5 -19.5h155v170l-163 -40q-21 -5 -34 -22.5t-13 -41.5zM410 370v-108l163 40q21 5 34 21.5t13 41.5q0 26 -18 45.5t-42 19.5h-90q-24 0 -41 -18t-19 -42z" />
    <glyph glyph-name="ccedilla" unicode="&#xe7;" horiz-adv-x="420" 
d="M390 0h-124l-15 -30q34 -4 57 -30t23 -60q0 -37 -28.5 -63.5t-66.5 -26.5q-22 0 -46 5.5t-36 10.5l-13 6v60q49 -24 80 -24q19 0 32 11t13 26q0 19 -11.5 29.5t-28.5 10.5h-50l31 77q-67 9 -112 60.5t-45 120.5v182q0 56 39.5 95.5t96.5 39.5h204v-70h-204
q-23 0 -39.5 -16.5t-16.5 -39.5v-200q0 -43 30.5 -73.5t72.5 -30.5h157v-70z" />
    <glyph glyph-name="egrave" unicode="&#xe8;" horiz-adv-x="460" 
d="M130 365v-103l163 40q21 5 34 21.5t13 41.5q0 26 -18 45.5t-42 19.5h-90q-25 0 -42.5 -19.5t-17.5 -45.5zM400 70v-70h-158q-80 0 -136 56.5t-56 136.5v172q0 56 41 95.5t99 39.5h90q58 0 99 -39.5t41 -95.5q0 -47 -31.5 -84.5t-77.5 -48.5l-181 -44v-5q0 -47 33 -80
t79 -33h158zM117 700h85l140 -140h-85z" />
    <glyph glyph-name="eacute" unicode="&#xe9;" horiz-adv-x="460" 
d="M130 365v-103l163 40q21 5 34 21.5t13 41.5q0 26 -18 45.5t-42 19.5h-90q-25 0 -42.5 -19.5t-17.5 -45.5zM400 70v-70h-158q-80 0 -136 56.5t-56 136.5v172q0 56 41 95.5t99 39.5h90q58 0 99 -39.5t41 -95.5q0 -47 -31.5 -84.5t-77.5 -48.5l-181 -44v-5q0 -47 33 -80
t79 -33h158zM288 700h85l-139 -140h-86z" />
    <glyph glyph-name="ecircumflex" unicode="&#xea;" horiz-adv-x="460" 
d="M130 365v-103l163 40q21 5 34 21.5t13 41.5q0 26 -18 45.5t-42 19.5h-90q-25 0 -42.5 -19.5t-17.5 -45.5zM400 70v-70h-158q-80 0 -136 56.5t-56 136.5v172q0 56 41 95.5t99 39.5h90q58 0 99 -39.5t41 -95.5q0 -47 -31.5 -84.5t-77.5 -48.5l-181 -44v-5q0 -47 33 -80
t79 -33h158zM160 560h-85l160 160l160 -160h-85l-75 75z" />
    <glyph glyph-name="edieresis" unicode="&#xeb;" horiz-adv-x="460" 
d="M130 365v-103l163 40q21 5 34 21.5t13 41.5q0 26 -18 45.5t-42 19.5h-90q-25 0 -42.5 -19.5t-17.5 -45.5zM400 70v-70h-158q-80 0 -136 56.5t-56 136.5v172q0 56 41 95.5t99 39.5h90q58 0 99 -39.5t41 -95.5q0 -47 -31.5 -84.5t-77.5 -48.5l-181 -44v-5q0 -47 33 -80
t79 -33h158zM105 570v80h80v-80h-80zM285 570v80h80v-80h-80z" />
    <glyph glyph-name="igrave" unicode="&#xec;" horiz-adv-x="200" 
d="M0 700h40l100 -100v-40h-46l-94 95v45zM60 0v500h80v-500h-80z" />
    <glyph glyph-name="iacute" unicode="&#xed;" horiz-adv-x="200" 
d="M160 700h40v-45l-94 -95h-46v40zM60 0v500h80v-500h-80z" />
    <glyph glyph-name="icircumflex" unicode="&#xee;" horiz-adv-x="200" 
d="M25 560v85l75 75l75 -75v-85l-75 75zM60 0v500h80v-500h-80z" />
    <glyph glyph-name="idieresis" unicode="&#xef;" horiz-adv-x="200" 
d="M120 570v80h70v-80h-70zM10 570v80h70v-80h-70zM60 0v500h80v-500h-80z" />
    <glyph glyph-name="eth" unicode="&#xf0;" horiz-adv-x="490" 
d="M260 500v70l50 32q-36 28 -80 28h-140v70h140q81 0 143 -57l87 57v-70l-50 -33q30 -49 30 -107v-307q0 -76 -53.5 -129.5t-129.5 -53.5h-24q-76 0 -129.5 53.5t-53.5 129.5v133q0 64 45 109t110 45h81q40 0 74 -20v50q0 28 -13 56zM360 173v152q0 31 -21.5 53t-52.5 22
h-81q-31 0 -53 -22t-22 -53v-152q0 -43 30.5 -73t72.5 -30h24q43 0 73 30t30 73z" />
    <glyph glyph-name="ntilde" unicode="&#xf1;" horiz-adv-x="490" 
d="M140 317v-317h-80v500h50l30 -45q45 45 113 45h41q57 0 96.5 -39.5t39.5 -95.5v-365h-80v374q0 23 -16.5 39.5t-39.5 16.5h-41q-47 0 -80 -33t-33 -80zM345 665h55q0 -44 -23.5 -72t-69.5 -28q-26 0 -49.5 19.5t-42.5 39t-35 19.5q-15 0 -25 -11.5t-10 -26.5h-55
q0 44 23.5 72t69.5 28q26 0 49.5 -19.5t42.5 -39t35 -19.5q15 0 25 11.5t10 26.5z" />
    <glyph glyph-name="ograve" unicode="&#xf2;" horiz-adv-x="480" 
d="M276 0h-72q-64 0 -109 45t-45 110v210q0 56 39.5 95.5t95.5 39.5h110q56 0 95.5 -39.5t39.5 -95.5v-210q0 -65 -45 -110t-109 -45zM204 70h72q31 0 52.5 22t21.5 53v229q0 23 -16 39.5t-39 16.5h-110q-23 0 -39 -16.5t-16 -39.5v-229q0 -31 21.5 -53t52.5 -22zM123 700
h85l140 -140h-85z" />
    <glyph glyph-name="oacute" unicode="&#xf3;" horiz-adv-x="480" 
d="M276 0h-72q-64 0 -109 45t-45 110v210q0 56 39.5 95.5t95.5 39.5h110q56 0 95.5 -39.5t39.5 -95.5v-210q0 -65 -45 -110t-109 -45zM204 70h72q31 0 52.5 22t21.5 53v229q0 23 -16 39.5t-39 16.5h-110q-23 0 -39 -16.5t-16 -39.5v-229q0 -31 21.5 -53t52.5 -22zM293 700
h85l-139 -140h-86z" />
    <glyph glyph-name="ocircumflex" unicode="&#xf4;" horiz-adv-x="480" 
d="M276 0h-72q-64 0 -109 45t-45 110v210q0 56 39.5 95.5t95.5 39.5h110q56 0 95.5 -39.5t39.5 -95.5v-210q0 -65 -45 -110t-109 -45zM204 70h72q31 0 52.5 22t21.5 53v229q0 23 -16 39.5t-39 16.5h-110q-23 0 -39 -16.5t-16 -39.5v-229q0 -31 21.5 -53t52.5 -22zM165 560
h-85l160 160l160 -160h-85l-75 75z" />
    <glyph glyph-name="otilde" unicode="&#xf5;" horiz-adv-x="480" 
d="M276 0h-72q-64 0 -109 45t-45 110v210q0 56 39.5 95.5t95.5 39.5h110q56 0 95.5 -39.5t39.5 -95.5v-210q0 -65 -45 -110t-109 -45zM204 70h72q31 0 52.5 22t21.5 53v229q0 23 -16 39.5t-39 16.5h-110q-23 0 -39 -16.5t-16 -39.5v-229q0 -31 21.5 -53t52.5 -22zM340 665
h55q0 -44 -23.5 -72t-69.5 -28q-26 0 -49.5 19.5t-42.5 39t-35 19.5q-15 0 -25 -11.5t-10 -26.5h-55q0 44 23.5 72t69.5 28q26 0 49.5 -19.5t42.5 -39t35 -19.5q15 0 25 11.5t10 26.5z" />
    <glyph glyph-name="odieresis" unicode="&#xf6;" horiz-adv-x="480" 
d="M276 0h-72q-64 0 -109 45t-45 110v210q0 56 39.5 95.5t95.5 39.5h110q56 0 95.5 -39.5t39.5 -95.5v-210q0 -65 -45 -110t-109 -45zM204 70h72q31 0 52.5 22t21.5 53v229q0 23 -16 39.5t-39 16.5h-110q-23 0 -39 -16.5t-16 -39.5v-229q0 -31 21.5 -53t52.5 -22zM110 570
v80h80v-80h-80zM290 570v80h80v-80h-80z" />
    <glyph glyph-name="divide" unicode="&#xf7;" horiz-adv-x="550" 
d="M230 350v90h90v-90h-90zM40 220v70h470v-70h-470zM230 70v90h90v-90h-90z" />
    <glyph glyph-name="oslash" unicode="&#xf8;" horiz-adv-x="480" 
d="M45 -60l52 103q-47 45 -47 112v210q0 56 39.5 95.5t95.5 39.5h110q12 0 32 -4l28 54h80l-45 -89q40 -42 40 -96v-210q0 -65 -45 -110t-109 -45h-72q-24 0 -45 6l-34 -66h-80zM130 145q0 -17 5 -28l159 313h-109q-23 0 -39 -16.5t-16 -39.5v-229zM204 70h72q31 0 52.5 22
t21.5 53v229q0 5 -1 7l-157 -310q4 -1 12 -1z" />
    <glyph glyph-name="ugrave" unicode="&#xf9;" horiz-adv-x="490" 
d="M350 183v317h80v-500h-50l-30 45q-45 -45 -113 -45h-41q-57 0 -96.5 39.5t-39.5 95.5v365h80v-374q0 -23 16.5 -39.5t39.5 -16.5h41q47 0 80 33t33 80zM128 700h85l140 -140h-85z" />
    <glyph glyph-name="uacute" unicode="&#xfa;" horiz-adv-x="490" 
d="M350 183v317h80v-500h-50l-30 45q-45 -45 -113 -45h-41q-57 0 -96.5 39.5t-39.5 95.5v365h80v-374q0 -23 16.5 -39.5t39.5 -16.5h41q47 0 80 33t33 80zM298 700h85l-139 -140h-86z" />
    <glyph glyph-name="ucircumflex" unicode="&#xfb;" horiz-adv-x="490" 
d="M350 183v317h80v-500h-50l-30 45q-45 -45 -113 -45h-41q-57 0 -96.5 39.5t-39.5 95.5v365h80v-374q0 -23 16.5 -39.5t39.5 -16.5h41q47 0 80 33t33 80zM170 560h-85l160 160l160 -160h-85l-75 75z" />
    <glyph glyph-name="udieresis" unicode="&#xfc;" horiz-adv-x="490" 
d="M350 183v317h80v-500h-50l-30 45q-45 -45 -113 -45h-41q-57 0 -96.5 39.5t-39.5 95.5v365h80v-374q0 -23 16.5 -39.5t39.5 -16.5h41q47 0 80 33t33 80zM115 570v80h80v-80h-80zM295 570v80h80v-80h-80z" />
    <glyph glyph-name="yacute" unicode="&#xfd;" horiz-adv-x="490" 
d="M350 -47v92q-45 -45 -116 -45h-38q-57 0 -96.5 39.5t-39.5 95.5v365h80v-375q0 -23 16.5 -39t39.5 -16h38q47 0 81.5 32t34.5 78v320h80v-540q0 -79 -57.5 -134.5t-137.5 -55.5h-115v70h117q47 0 80 33t33 80zM293 700h85l-139 -140h-86z" />
    <glyph glyph-name="thorn" unicode="&#xfe;" horiz-adv-x="490" 
d="M60 -230v930h80v-215q22 15 56 15h109q56 0 95.5 -39.5t39.5 -95.5v-210q0 -65 -45 -110t-109 -45h-71q-44 0 -75 23v-253h-80zM215 70h71q31 0 52.5 22t21.5 53v229q0 23 -16 39.5t-39 16.5h-109q-23 0 -39.5 -15t-16.5 -35v-235q0 -31 22 -53t53 -22z" />
    <glyph glyph-name="ydieresis" unicode="&#xff;" horiz-adv-x="490" 
d="M350 -47v92q-45 -45 -116 -45h-38q-57 0 -96.5 39.5t-39.5 95.5v365h80v-375q0 -23 16.5 -39t39.5 -16h38q47 0 81.5 32t34.5 78v320h80v-540q0 -79 -57.5 -134.5t-137.5 -55.5h-115v70h117q47 0 80 33t33 80zM115 570v80h80v-80h-80zM295 570v80h80v-80h-80z" />
    <glyph glyph-name="Amacron" unicode="&#x100;" 
d="M20 0l220 700h80l220 -700h-84l-65 210h-222l-65 -210h-84zM280 570l-90 -290h179zM165 760v60h230v-60h-230z" />
    <glyph glyph-name="amacron" unicode="&#x101;" horiz-adv-x="470" 
d="M120 136q0 -27 15.5 -46.5t39.5 -19.5h155v170l-163 -40q-21 -5 -34 -22.5t-13 -41.5zM275 430h-195v70h195q56 0 95.5 -39t39.5 -95v-366h-235q-58 0 -96.5 39.5t-38.5 96.5q0 45 32 83t78 49l180 43v64q0 23 -16 39t-39 16zM120 570v60h230v-60h-230z" />
    <glyph glyph-name="Abreve" unicode="&#x102;" 
d="M20 0l220 700h80l220 -700h-84l-65 210h-222l-65 -210h-84zM280 570l-90 -290h179zM350 895h55q0 -54 -35 -94.5t-90 -40.5t-90 40t-35 95h55q0 -32 20.5 -56t49.5 -24t49.5 24t20.5 56z" />
    <glyph glyph-name="abreve" unicode="&#x103;" horiz-adv-x="470" 
d="M120 136q0 -27 15.5 -46.5t39.5 -19.5h155v170l-163 -40q-21 -5 -34 -22.5t-13 -41.5zM275 430h-195v70h195q56 0 95.5 -39t39.5 -95v-366h-235q-58 0 -96.5 39.5t-38.5 96.5q0 45 32 83t78 49l180 43v64q0 23 -16 39t-39 16zM305 700h55q0 -54 -35 -94.5t-90 -40.5
t-90 40t-35 95h55q0 -32 20.5 -56t49.5 -24t49.5 24t20.5 56z" />
    <glyph glyph-name="Aogonek" unicode="&#x104;" 
d="M503 -152q12 0 30.5 7t30.5 13l12 7v-60q-33 -25 -88 -25q-41 0 -70.5 27t-29.5 68q0 55 68 115l-65 210h-222l-65 -210h-84l220 700h80l220 -700h-8q-74 -68 -74 -110t45 -42zM280 570l-90 -290h179z" />
    <glyph glyph-name="aogonek" unicode="&#x105;" horiz-adv-x="470" 
d="M371 -152q12 0 30.5 7t30.5 13l12 7v-60q-33 -25 -88 -25q-41 0 -70.5 27t-29.5 68q0 32 23 64t46 51h-150q-58 0 -96.5 39.5t-38.5 96.5q0 45 32 83t78 49l180 43v64q0 23 -16 39t-39 16h-195v70h195q56 0 95.5 -39t39.5 -95v-366h-10q-74 -68 -74 -110t45 -42zM120 136
q0 -27 15.5 -46.5t39.5 -19.5h155v170l-163 -40q-21 -5 -34 -22.5t-13 -41.5z" />
    <glyph glyph-name="Cacute" unicode="&#x106;" horiz-adv-x="500" 
d="M470 0h-167q-105 0 -179 74t-74 179v261q0 77 54.5 131.5t131.5 54.5h234v-70h-234q-43 0 -74.5 -31.5t-31.5 -74.5v-280q0 -71 51 -122.5t122 -51.5h167v-70zM319 900h85l-139 -140h-86z" />
    <glyph glyph-name="cacute" unicode="&#x107;" horiz-adv-x="420" 
d="M390 0h-157q-76 0 -129.5 53.5t-53.5 129.5v182q0 56 39.5 95.5t96.5 39.5h204v-70h-204q-23 0 -39.5 -16.5t-16.5 -39.5v-200q0 -43 30.5 -73.5t72.5 -30.5h157v-70zM280 700h85l-139 -140h-86z" />
    <glyph glyph-name="Ccircumflex" unicode="&#x108;" horiz-adv-x="500" 
d="M470 0h-167q-105 0 -179 74t-74 179v261q0 77 54.5 131.5t131.5 54.5h234v-70h-234q-43 0 -74.5 -31.5t-31.5 -74.5v-280q0 -71 51 -122.5t122 -51.5h167v-70zM205 760h-85l160 160l160 -160h-85l-75 75z" />
    <glyph glyph-name="ccircumflex" unicode="&#x109;" horiz-adv-x="420" 
d="M390 0h-157q-76 0 -129.5 53.5t-53.5 129.5v182q0 56 39.5 95.5t96.5 39.5h204v-70h-204q-23 0 -39.5 -16.5t-16.5 -39.5v-200q0 -43 30.5 -73.5t72.5 -30.5h157v-70zM155 560h-85l160 160l160 -160h-85l-75 75z" />
    <glyph glyph-name="Cdotaccent" unicode="&#x10a;" horiz-adv-x="500" 
d="M470 0h-167q-105 0 -179 74t-74 179v261q0 77 54.5 131.5t131.5 54.5h234v-70h-234q-43 0 -74.5 -31.5t-31.5 -74.5v-280q0 -71 51 -122.5t122 -51.5h167v-70zM235 760v90h90v-90h-90z" />
    <glyph glyph-name="cdotaccent" unicode="&#x10b;" horiz-adv-x="420" 
d="M390 0h-157q-76 0 -129.5 53.5t-53.5 129.5v182q0 56 39.5 95.5t96.5 39.5h204v-70h-204q-23 0 -39.5 -16.5t-16.5 -39.5v-200q0 -43 30.5 -73.5t72.5 -30.5h157v-70zM192 570v90h90v-90h-90z" />
    <glyph glyph-name="Ccaron" unicode="&#x10c;" horiz-adv-x="500" 
d="M470 0h-167q-105 0 -179 74t-74 179v261q0 77 54.5 131.5t131.5 54.5h234v-70h-234q-43 0 -74.5 -31.5t-31.5 -74.5v-280q0 -71 51 -122.5t122 -51.5h167v-70zM120 900h85l75 -75l75 75h85l-160 -160z" />
    <glyph glyph-name="ccaron" unicode="&#x10d;" horiz-adv-x="420" 
d="M390 0h-157q-76 0 -129.5 53.5t-53.5 129.5v182q0 56 39.5 95.5t96.5 39.5h204v-70h-204q-23 0 -39.5 -16.5t-16.5 -39.5v-200q0 -43 30.5 -73.5t72.5 -30.5h157v-70zM71 700h85l75 -75l75 75h85l-160 -160z" />
    <glyph glyph-name="Dcaron" unicode="&#x10e;" 
d="M60 0v700h263q77 0 132 -54t55 -131v-262q0 -105 -74.5 -179t-180.5 -74h-195zM326 630h-186v-560h120q71 0 120.5 51t49.5 123v281q0 43 -30.5 74t-73.5 31zM105 900h85l75 -75l75 75h85l-160 -160z" />
    <glyph glyph-name="dcaron" unicode="&#x10f;" horiz-adv-x="600" 
d="M480 530v170h70l-10 -170h-60zM410 700v-700h-177q-80 0 -136.5 56.5t-56.5 136.5v172q0 56 39.5 95.5t96.5 39.5h154v200h80zM120 374v-191q0 -47 33 -80t80 -33h97v360h-154q-23 0 -39.5 -16.5t-16.5 -39.5z" />
    <glyph glyph-name="Dcroat" unicode="&#x110;" horiz-adv-x="610" 
d="M30 387v71h80v242h263q77 0 132 -54t55 -131v-262q0 -105 -74.5 -179t-180.5 -74h-195v387h-80zM376 630h-186v-172h150v-71h-150v-317h120q71 0 120.5 51t49.5 123v281q0 43 -30.5 74t-73.5 31z" />
    <glyph glyph-name="dcroat" unicode="&#x111;" horiz-adv-x="510" 
d="M180 560v70h160v70h80v-70h60v-70h-60v-560h-177q-80 0 -136.5 56.5t-56.5 136.5v172q0 56 39.5 95.5t96.5 39.5h154v60h-160zM130 374v-191q0 -47 33 -80t80 -33h97v360h-154q-23 0 -39.5 -16.5t-16.5 -39.5z" />
    <glyph glyph-name="Emacron" unicode="&#x112;" horiz-adv-x="500" 
d="M60 0v700h410v-70h-330v-172h290v-71h-290v-317h330v-70h-410zM150 760v60h230v-60h-230z" />
    <glyph glyph-name="emacron" unicode="&#x113;" horiz-adv-x="460" 
d="M130 365v-103l163 40q21 5 34 21.5t13 41.5q0 26 -18 45.5t-42 19.5h-90q-25 0 -42.5 -19.5t-17.5 -45.5zM400 70v-70h-158q-80 0 -136 56.5t-56 136.5v172q0 56 41 95.5t99 39.5h90q58 0 99 -39.5t41 -95.5q0 -47 -31.5 -84.5t-77.5 -48.5l-181 -44v-5q0 -47 33 -80
t79 -33h158zM120 570v60h230v-60h-230z" />
    <glyph glyph-name="Ebreve" unicode="&#x114;" horiz-adv-x="500" 
d="M60 0v700h410v-70h-330v-172h290v-71h-290v-317h330v-70h-410zM334 895h55q0 -54 -35 -94.5t-90 -40.5t-90 40t-35 95h55q0 -32 20.5 -56t49.5 -24t49.5 24t20.5 56z" />
    <glyph glyph-name="ebreve" unicode="&#x115;" horiz-adv-x="460" 
d="M130 365v-103l163 40q21 5 34 21.5t13 41.5q0 26 -18 45.5t-42 19.5h-90q-25 0 -42.5 -19.5t-17.5 -45.5zM400 70v-70h-158q-80 0 -136 56.5t-56 136.5v172q0 56 41 95.5t99 39.5h90q58 0 99 -39.5t41 -95.5q0 -47 -31.5 -84.5t-77.5 -48.5l-181 -44v-5q0 -47 33 -80
t79 -33h158zM305 700h55q0 -54 -35 -94.5t-90 -40.5t-90 40t-35 95h55q0 -32 20.5 -56t49.5 -24t49.5 24t20.5 56z" />
    <glyph glyph-name="Edotaccent" unicode="&#x116;" horiz-adv-x="500" 
d="M60 0v700h410v-70h-330v-172h290v-71h-290v-317h330v-70h-410zM220 760v90h90v-90h-90z" />
    <glyph glyph-name="edotaccent" unicode="&#x117;" horiz-adv-x="460" 
d="M130 365v-103l163 40q21 5 34 21.5t13 41.5q0 26 -18 45.5t-42 19.5h-90q-25 0 -42.5 -19.5t-17.5 -45.5zM400 70v-70h-158q-80 0 -136 56.5t-56 136.5v172q0 56 41 95.5t99 39.5h90q58 0 99 -39.5t41 -95.5q0 -47 -31.5 -84.5t-77.5 -48.5l-181 -44v-5q0 -47 33 -80
t79 -33h158zM190 570v90h90v-90h-90z" />
    <glyph glyph-name="Eogonek" unicode="&#x118;" horiz-adv-x="500" 
d="M60 0v700h410v-70h-330v-172h290v-71h-290v-317h330v-70h-34q-74 -68 -74 -110t45 -42q12 0 30.5 7t30.5 13l12 7v-60q-33 -25 -88 -25q-41 0 -70.5 27t-29.5 68q0 32 23 64t46 51h-301z" />
    <glyph glyph-name="eogonek" unicode="&#x119;" horiz-adv-x="460" 
d="M347 -152q12 0 30.5 7t30.5 13l12 7v-60q-33 -25 -88 -25q-41 0 -70.5 27t-29.5 68q0 32 23 64t46 51h-59q-80 0 -136 56.5t-56 136.5v172q0 56 41 95.5t99 39.5h90q58 0 99 -39.5t41 -95.5q0 -47 -31.5 -84.5t-77.5 -48.5l-181 -44v-5q0 -47 33 -80t79 -33h158v-70h-24
q-74 -68 -74 -110t45 -42zM130 365v-103l163 40q21 5 34 21.5t13 41.5q0 26 -18 45.5t-42 19.5h-90q-25 0 -42.5 -19.5t-17.5 -45.5z" />
    <glyph glyph-name="Ecaron" unicode="&#x11a;" horiz-adv-x="500" 
d="M60 0v700h410v-70h-330v-172h290v-71h-290v-317h330v-70h-410zM105 900h85l75 -75l75 75h85l-160 -160z" />
    <glyph glyph-name="ecaron" unicode="&#x11b;" horiz-adv-x="460" 
d="M130 365v-103l163 40q21 5 34 21.5t13 41.5q0 26 -18 45.5t-42 19.5h-90q-25 0 -42.5 -19.5t-17.5 -45.5zM400 70v-70h-158q-80 0 -136 56.5t-56 136.5v172q0 56 41 95.5t99 39.5h90q58 0 99 -39.5t41 -95.5q0 -47 -31.5 -84.5t-77.5 -48.5l-181 -44v-5q0 -47 33 -80
t79 -33h158zM75 700h85l75 -75l75 75h85l-160 -160z" />
    <glyph glyph-name="Gcircumflex" unicode="&#x11c;" 
d="M280 387v71h220v-458h-196q-106 0 -180 74t-74 179v261q0 77 54.5 131.5t131.5 54.5h244v-70h-244q-43 0 -74.5 -31.5t-31.5 -74.5v-280q0 -71 51.5 -122.5t122.5 -51.5h116v317h-140zM210 760h-85l160 160l160 -160h-85l-75 75z" />
    <glyph glyph-name="gcircumflex" unicode="&#x11d;" horiz-adv-x="480" 
d="M420 500v-540q0 -80 -56 -135t-137 -55h-117v70h117q47 0 80 33t33 80v47h-107q-76 0 -129.5 53.5t-53.5 129.5v182q0 56 39.5 95.5t95.5 39.5h235zM130 174q0 -43 30 -73.5t73 -30.5h107v360h-155q-23 0 -39 -16.5t-16 -39.5v-200zM170 560h-85l160 160l160 -160h-85
l-75 75z" />
    <glyph glyph-name="Gbreve" unicode="&#x11e;" 
d="M280 387v71h220v-458h-196q-106 0 -180 74t-74 179v261q0 77 54.5 131.5t131.5 54.5h244v-70h-244q-43 0 -74.5 -31.5t-31.5 -74.5v-280q0 -71 51.5 -122.5t122.5 -51.5h116v317h-140zM355 895h55q0 -54 -35 -94.5t-90 -40.5t-90 40t-35 95h55q0 -32 20.5 -56t49.5 -24
t49.5 24t20.5 56z" />
    <glyph glyph-name="gbreve" unicode="&#x11f;" horiz-adv-x="480" 
d="M420 500v-540q0 -80 -56 -135t-137 -55h-117v70h117q47 0 80 33t33 80v47h-107q-76 0 -129.5 53.5t-53.5 129.5v182q0 56 39.5 95.5t95.5 39.5h235zM130 174q0 -43 30 -73.5t73 -30.5h107v360h-155q-23 0 -39 -16.5t-16 -39.5v-200zM315 700h55q0 -54 -35 -94.5
t-90 -40.5t-90 40t-35 95h55q0 -32 20.5 -56t49.5 -24t49.5 24t20.5 56z" />
    <glyph glyph-name="Gdotaccent" unicode="&#x120;" 
d="M280 387v71h220v-458h-196q-106 0 -180 74t-74 179v261q0 77 54.5 131.5t131.5 54.5h244v-70h-244q-43 0 -74.5 -31.5t-31.5 -74.5v-280q0 -71 51.5 -122.5t122.5 -51.5h116v317h-140zM243 760v90h90v-90h-90z" />
    <glyph glyph-name="gdotaccent" unicode="&#x121;" horiz-adv-x="480" 
d="M420 500v-540q0 -80 -56 -135t-137 -55h-117v70h117q47 0 80 33t33 80v47h-107q-76 0 -129.5 53.5t-53.5 129.5v182q0 56 39.5 95.5t95.5 39.5h235zM130 174q0 -43 30 -73.5t73 -30.5h107v360h-155q-23 0 -39 -16.5t-16 -39.5v-200zM200 570v90h90v-90h-90z" />
    <glyph glyph-name="Gcommaaccent" unicode="&#x122;" 
d="M275 -210v170h70l-10 -170h-60zM280 387v71h220v-458h-196q-106 0 -180 74t-74 179v261q0 77 54.5 131.5t131.5 54.5h244v-70h-244q-43 0 -74.5 -31.5t-31.5 -74.5v-280q0 -71 51.5 -122.5t122.5 -51.5h116v317h-140z" />
    <glyph glyph-name="gcommaaccent" unicode="&#x123;" horiz-adv-x="480" 
d="M285 710v-170h-70l10 170h60zM420 500v-540q0 -80 -56 -135t-137 -55h-117v70h117q47 0 80 33t33 80v47h-107q-76 0 -129.5 53.5t-53.5 129.5v182q0 56 39.5 95.5t95.5 39.5h235zM130 174q0 -43 30 -73.5t73 -30.5h107v360h-155q-23 0 -39 -16.5t-16 -39.5v-200z" />
    <glyph glyph-name="Hcircumflex" unicode="&#x124;" horiz-adv-x="570" 
d="M430 0v387h-290v-387h-80v700h80v-242h290v242h80v-700h-80zM210 760h-85l160 160l160 -160h-85l-75 75z" />
    <glyph glyph-name="hcircumflex" unicode="&#x125;" horiz-adv-x="480" 
d="M25 760h-25v60l100 100l100 -100v-60h-25l-75 75zM140 500h154q57 0 96.5 -39.5t39.5 -95.5v-365h-80v374q0 23 -16.5 39.5t-39.5 16.5h-154v-430h-80v700h80v-200z" />
    <glyph glyph-name="Hbar" unicode="&#x126;" horiz-adv-x="610" 
d="M30 500v70h50v130h80v-130h290v130h80v-130h50v-70h-50v-500h-80v330h-290v-330h-80v500h-50zM160 400h290v100h-290v-100z" />
    <glyph glyph-name="hbar" unicode="&#x127;" horiz-adv-x="510" 
d="M30 560v65h60v75h80v-75h160v-65h-160v-60h154q57 0 96.5 -39.5t39.5 -95.5v-365h-80v374q0 23 -16.5 39.5t-39.5 16.5h-154v-430h-80v560h-60z" />
    <glyph glyph-name="Itilde" unicode="&#x128;" horiz-adv-x="200" 
d="M13 812h-53q0 93 90 93q21 0 37 -12.5t24.5 -27.5t20.5 -27.5t25 -12.5q30 0 30 33h53q0 -93 -90 -93q-21 0 -37 12.5t-24.5 27.5t-20.5 27.5t-25 12.5q-30 0 -30 -33zM60 0v700h80v-700h-80z" />
    <glyph glyph-name="itilde" unicode="&#x129;" horiz-adv-x="240" 
d="M50 615h-50q0 41 21 63t59 22q22 0 37.5 -15.5t26.5 -31t21 -15.5q11 0 18 8t7 19h50q0 -41 -21 -63t-59 -22q-22 0 -37.5 15.5t-26.5 31t-21 15.5q-11 0 -18 -8t-7 -19zM80 0v500h80v-500h-80z" />
    <glyph glyph-name="Imacron" unicode="&#x12a;" horiz-adv-x="200" 
d="M10 760v60h180v-60h-180zM60 0v700h80v-700h-80z" />
    <glyph glyph-name="imacron" unicode="&#x12b;" horiz-adv-x="200" 
d="M20 570v60h160v-60h-160zM60 0v500h80v-500h-80z" />
    <glyph glyph-name="Ibreve" unicode="&#x12c;" horiz-adv-x="200" 
d="M60 0v700h80v-700h-80zM170 895h55q0 -54 -35 -94.5t-90 -40.5t-90 40t-35 95h55q0 -32 20.5 -56t49.5 -24t49.5 24t20.5 56z" />
    <glyph glyph-name="ibreve" unicode="&#x12d;" horiz-adv-x="200" 
d="M145 700h55q0 -52 -27.5 -83.5t-72.5 -31.5t-72.5 31.5t-27.5 83.5h55q0 -24 12 -42t33 -18t33 18t12 42zM60 0v500h80v-500h-80z" />
    <glyph glyph-name="Iogonek" unicode="&#x12e;" horiz-adv-x="200" 
d="M105 -152q12 0 30.5 7t30.5 13l12 7v-60q-33 -25 -88 -25q-41 0 -70.5 27t-29.5 68q0 33 23.5 65t46.5 51v699h80v-700h-6q-74 -68 -74 -110t45 -42z" />
    <glyph glyph-name="iogonek" unicode="&#x12f;" horiz-adv-x="200" 
d="M105 -152q12 0 30.5 7t30.5 13l12 7v-60q-33 -25 -88 -25q-41 0 -70.5 27t-29.5 68q0 33 23.5 65t46.5 51v499h80v-500h-6q-74 -68 -74 -110t45 -42zM60 600v100h80v-100h-80z" />
    <glyph glyph-name="Idotaccent" unicode="&#x130;" horiz-adv-x="200" 
d="M60 0v700h80v-700h-80zM55 760v90h90v-90h-90z" />
    <glyph glyph-name="dotlessi" unicode="&#x131;" horiz-adv-x="200" 
d="M60 0v500h80v-500h-80z" />
    <glyph glyph-name="Jcircumflex" unicode="&#x134;" horiz-adv-x="280" 
d="M105 760h-25v60l100 100l100 -100v-60h-25l-75 75zM140 166v534h80v-524q0 -77 -57 -131.5t-138 -54.5v70q47 0 81 31.5t34 74.5z" />
    <glyph glyph-name="jcircumflex" unicode="&#x135;" horiz-adv-x="200" 
d="M140 500v-540q0 -80 -60 -135t-145 -55v70q52 0 88.5 33t36.5 80v547h80zM25 560h-5v80l80 80l80 -80v-80h-5l-75 75z" />
    <glyph glyph-name="Kcommaaccent" unicode="&#x136;" horiz-adv-x="590" 
d="M260 -210v170h70l-10 -170h-60zM60 0v700h80v-700h-80zM464 0l-324 415l310 285h110l-315 -290l320 -410h-101z" />
    <glyph glyph-name="kcommaaccent" unicode="&#x137;" horiz-adv-x="500" 
d="M220 -210v170h70l-10 -170h-60zM60 0v700h80v-700h-80zM140 250l236 250h104l-240 -250l240 -250h-104z" />
    <glyph glyph-name="kgreenlandic" unicode="&#x138;" horiz-adv-x="500" 
d="M60 0v500h80v-500h-80zM140 250l236 250h104l-240 -250l240 -250h-104z" />
    <glyph glyph-name="Lacute" unicode="&#x139;" horiz-adv-x="510" 
d="M60 0v700h80v-630h340v-70h-420zM185 900h85l-139 -140h-86z" />
    <glyph glyph-name="lacute" unicode="&#x13a;" horiz-adv-x="200" 
d="M140 900h85l-139 -140h-26v60zM140 0h-80v700h80v-700z" />
    <glyph glyph-name="Lcommaaccent" unicode="&#x13b;" horiz-adv-x="510" 
d="M235 -210v170h70l-10 -170h-60zM60 0v700h80v-630h340v-70h-420z" />
    <glyph glyph-name="lcommaaccent" unicode="&#x13c;" horiz-adv-x="200" 
d="M60 -210v170h70l-10 -170h-60zM140 0h-80v700h80v-700z" />
    <glyph glyph-name="Lcaron" unicode="&#x13d;" horiz-adv-x="510" 
d="M200 530v170h70l-10 -170h-60zM60 0v700h80v-630h340v-70h-420z" />
    <glyph glyph-name="lcaron" unicode="&#x13e;" horiz-adv-x="320" 
d="M200 530v170h70l-10 -170h-60zM140 0h-80v700h80v-700z" />
    <glyph glyph-name="Ldot" unicode="&#x13f;" horiz-adv-x="510" 
d="M60 0v700h80v-630h340v-70h-420zM243 320v90h90v-90h-90z" />
    <glyph glyph-name="ldot" unicode="&#x140;" horiz-adv-x="330" 
d="M140 0h-80v700h80v-700zM190 320v90h90v-90h-90z" />
    <glyph glyph-name="Lslash" unicode="&#x141;" horiz-adv-x="559" 
d="M20 305v70l90 22v303h80v-283l90 23v-70l-90 -23v-277h340v-70h-420v327z" />
    <glyph glyph-name="lslash" unicode="&#x142;" horiz-adv-x="300" 
d="M20 305v70l90 22v303h80v-283l90 23v-70l-90 -24v-346h-80v327z" />
    <glyph glyph-name="Nacute" unicode="&#x143;" horiz-adv-x="570" 
d="M60 0v700h83l287 -540v540h80v-700h-82l-288 540v-540h-80zM332 900h85l-139 -140h-86z" />
    <glyph glyph-name="nacute" unicode="&#x144;" horiz-adv-x="490" 
d="M140 317v-317h-80v500h50l30 -45q45 45 113 45h41q57 0 96.5 -39.5t39.5 -95.5v-365h-80v374q0 23 -16.5 39.5t-39.5 16.5h-41q-47 0 -80 -33t-33 -80zM292 700h85l-139 -140h-86z" />
    <glyph glyph-name="Ncommaaccent" unicode="&#x145;" horiz-adv-x="570" 
d="M245 -210v170h70l-10 -170h-60zM60 0v700h83l287 -540v540h80v-700h-82l-288 540v-540h-80z" />
    <glyph glyph-name="ncommaaccent" unicode="&#x146;" horiz-adv-x="490" 
d="M215 -210v170h70l-10 -170h-60zM140 317v-317h-80v500h50l30 -45q45 45 113 45h41q57 0 96.5 -39.5t39.5 -95.5v-365h-80v374q0 23 -16.5 39.5t-39.5 16.5h-41q-47 0 -80 -33t-33 -80z" />
    <glyph glyph-name="Ncaron" unicode="&#x147;" horiz-adv-x="570" 
d="M60 0v700h83l287 -540v540h80v-700h-82l-288 540v-540h-80zM125 900h85l75 -75l75 75h85l-160 -160z" />
    <glyph glyph-name="ncaron" unicode="&#x148;" horiz-adv-x="490" 
d="M140 317v-317h-80v500h50l30 -45q45 45 113 45h41q57 0 96.5 -39.5t39.5 -95.5v-365h-80v374q0 23 -16.5 39.5t-39.5 16.5h-41q-47 0 -80 -33t-33 -80zM95 700h85l75 -75l75 75h85l-160 -160z" />
    <glyph glyph-name="napostrophe" unicode="&#x149;" horiz-adv-x="490" 
d="M60 540v170h70l-10 -170h-60zM140 317v-317h-80v500h50l30 -45q45 45 113 45h41q57 0 96.5 -39.5t39.5 -95.5v-365h-80v374q0 23 -16.5 39.5t-39.5 16.5h-41q-47 0 -80 -33t-33 -80z" />
    <glyph glyph-name="Eng" unicode="&#x14a;" horiz-adv-x="570" 
d="M60 0v700h83l287 -540v540h80v-704q0 -77 -57 -131.5t-138 -54.5v70q47 0 81 31.5t34 74.5l-2 14l-288 540v-540h-80z" />
    <glyph glyph-name="eng" unicode="&#x14b;" horiz-adv-x="490" 
d="M140 317v-317h-80v500h50l30 -45q45 45 113 45h41q57 0 96.5 -39.5t39.5 -95.5v-365q0 -80 -60 -135t-145 -55v70q52 0 88.5 33t36.5 80v381q0 23 -16.5 39.5t-39.5 16.5h-41q-47 0 -80 -33t-33 -80z" />
    <glyph glyph-name="Omacron" unicode="&#x14c;" 
d="M296 0h-31q-89 0 -152 63t-63 152v299q0 77 54.5 131.5t131.5 54.5h89q77 0 131 -54.5t54 -131.5v-299q0 -89 -62.5 -152t-151.5 -63zM265 70h31q55 0 94.5 40t39.5 95v319q0 43 -31 74.5t-74 31.5h-91q-43 0 -73.5 -31.5t-30.5 -74.5v-319q0 -55 40 -95t95 -40zM165 760
v60h230v-60h-230z" />
    <glyph glyph-name="omacron" unicode="&#x14d;" horiz-adv-x="480" 
d="M276 0h-72q-64 0 -109 45t-45 110v210q0 56 39.5 95.5t95.5 39.5h110q56 0 95.5 -39.5t39.5 -95.5v-210q0 -65 -45 -110t-109 -45zM204 70h72q31 0 52.5 22t21.5 53v229q0 23 -16 39.5t-39 16.5h-110q-23 0 -39 -16.5t-16 -39.5v-229q0 -31 21.5 -53t52.5 -22zM125 570
v60h230v-60h-230z" />
    <glyph glyph-name="Obreve" unicode="&#x14e;" 
d="M296 0h-31q-89 0 -152 63t-63 152v299q0 77 54.5 131.5t131.5 54.5h89q77 0 131 -54.5t54 -131.5v-299q0 -89 -62.5 -152t-151.5 -63zM265 70h31q55 0 94.5 40t39.5 95v319q0 43 -31 74.5t-74 31.5h-91q-43 0 -73.5 -31.5t-30.5 -74.5v-319q0 -55 40 -95t95 -40zM350 895
h55q0 -54 -35 -94.5t-90 -40.5t-90 40t-35 95h55q0 -32 20.5 -56t49.5 -24t49.5 24t20.5 56z" />
    <glyph glyph-name="obreve" unicode="&#x14f;" horiz-adv-x="480" 
d="M276 0h-72q-64 0 -109 45t-45 110v210q0 56 39.5 95.5t95.5 39.5h110q56 0 95.5 -39.5t39.5 -95.5v-210q0 -65 -45 -110t-109 -45zM204 70h72q31 0 52.5 22t21.5 53v229q0 23 -16 39.5t-39 16.5h-110q-23 0 -39 -16.5t-16 -39.5v-229q0 -31 21.5 -53t52.5 -22zM310 700
h55q0 -54 -35 -94.5t-90 -40.5t-90 40t-35 95h55q0 -32 20.5 -56t49.5 -24t49.5 24t20.5 56z" />
    <glyph glyph-name="Ohungarumlaut" unicode="&#x150;" 
d="M296 0h-31q-89 0 -152 63t-63 152v299q0 77 54.5 131.5t131.5 54.5h89q77 0 131 -54.5t54 -131.5v-299q0 -89 -62.5 -152t-151.5 -63zM265 70h31q55 0 94.5 40t39.5 95v319q0 43 -31 74.5t-74 31.5h-91q-43 0 -73.5 -31.5t-30.5 -74.5v-319q0 -55 40 -95t95 -40zM432 890
h85l-130 -130h-85zM262 890h85l-130 -130h-85z" />
    <glyph glyph-name="ohungarumlaut" unicode="&#x151;" horiz-adv-x="480" 
d="M276 0h-72q-64 0 -109 45t-45 110v210q0 56 39.5 95.5t95.5 39.5h110q56 0 95.5 -39.5t39.5 -95.5v-210q0 -65 -45 -110t-109 -45zM204 70h72q31 0 52.5 22t21.5 53v229q0 23 -16 39.5t-39 16.5h-110q-23 0 -39 -16.5t-16 -39.5v-229q0 -31 21.5 -53t52.5 -22zM382 700
h85l-130 -130h-85zM212 700h85l-130 -130h-85z" />
    <glyph glyph-name="OE" unicode="&#x152;" horiz-adv-x="860" 
d="M420 0v50q-58 -50 -133 -50h-22q-89 0 -152 63t-63 152v299q0 77 54.5 131.5t131.5 54.5h594v-70h-330v-172h290v-71h-290v-317h330v-70h-410zM420 205v425h-184q-43 0 -74 -30.5t-31 -73.5v-321q0 -56 39.5 -95.5t94.5 -39.5h22q55 0 94 39.5t39 95.5z" />
    <glyph glyph-name="oe" unicode="&#x153;" horiz-adv-x="760" 
d="M700 70v-70h-158q-85 0 -142 62q-46 -62 -124 -62h-72q-64 0 -109 45t-45 110v210q0 56 39.5 95.5t95.5 39.5h110q57 0 95 -40q42 40 100 40h90q58 0 99 -39.5t41 -95.5q0 -48 -31.5 -85t-77.5 -48l-181 -44v-10q2 -45 34 -76.5t78 -31.5h158zM204 70h72q31 0 52.5 22
t21.5 53v229q0 23 -16 39.5t-39 16.5h-110q-23 0 -39 -16.5t-16 -39.5v-229q0 -31 21.5 -53t52.5 -22zM430 365v-103l163 40q47 10 47 63q0 26 -18 45.5t-42 19.5h-90q-25 0 -42.5 -19.5t-17.5 -45.5z" />
    <glyph glyph-name="Racute" unicode="&#x154;" horiz-adv-x="550" 
d="M500 544q0 -60 -42 -105.5t-100 -51.5q18 -13 27 -37l145 -350h-88l-133 326q-26 61 -99 61h-70v-387h-80v700h284q65 0 110.5 -45.5t45.5 -110.5zM140 458h194q34 0 59.5 25.5t25.5 60.5t-25 60.5t-60 25.5h-194v-172zM312 900h85l-139 -140h-86z" />
    <glyph glyph-name="racute" unicode="&#x155;" horiz-adv-x="400" 
d="M60 0v500h50l30 -45q45 45 110 45h120v-70h-120q-46 0 -78 -32.5t-32 -77.5v-320h-80zM252 700h85l-139 -140h-86z" />
    <glyph glyph-name="Rcommaaccent" unicode="&#x156;" horiz-adv-x="550" 
d="M245 -210v170h70l-10 -170h-60zM500 544q0 -60 -42 -105.5t-100 -51.5q18 -13 27 -37l145 -350h-88l-133 326q-26 61 -99 61h-70v-387h-80v700h284q65 0 110.5 -45.5t45.5 -110.5zM140 458h194q34 0 59.5 25.5t25.5 60.5t-25 60.5t-60 25.5h-194v-172z" />
    <glyph glyph-name="rcommaaccent" unicode="&#x157;" horiz-adv-x="400" 
d="M60 -210v170h70l-10 -170h-60zM60 0v500h50l30 -45q45 45 110 45h120v-70h-120q-46 0 -78 -32.5t-32 -77.5v-320h-80z" />
    <glyph glyph-name="Rcaron" unicode="&#x158;" horiz-adv-x="550" 
d="M500 544q0 -60 -42 -105.5t-100 -51.5q18 -13 27 -37l145 -350h-88l-133 326q-26 61 -99 61h-70v-387h-80v700h284q65 0 110.5 -45.5t45.5 -110.5zM140 458h194q34 0 59.5 25.5t25.5 60.5t-25 60.5t-60 25.5h-194v-172zM104 900h85l75 -75l75 75h85l-160 -160z" />
    <glyph glyph-name="rcaron" unicode="&#x159;" horiz-adv-x="400" 
d="M60 0v500h50l30 -45q45 45 110 45h120v-70h-120q-46 0 -78 -32.5t-32 -77.5v-320h-80zM55 700h85l75 -75l75 75h85l-160 -160z" />
    <glyph glyph-name="Sacute" unicode="&#x15a;" horiz-adv-x="530" 
d="M279 0h-219v70h210q57 0 98.5 41t41.5 99q0 47 -29 85.5t-71 47.5l-140 29q-58 12 -94 57t-36 106q0 69 49 117t118 48h243v-70h-234q-39 0 -67.5 -28t-28.5 -67q0 -31 20.5 -58.5t49.5 -33.5l135 -28q72 -15 118 -73t46 -132q0 -87 -61.5 -148.5t-148.5 -61.5zM312 900
h85l-139 -140h-86z" />
    <glyph glyph-name="sacute" unicode="&#x15b;" horiz-adv-x="450" 
d="M280 200l-130 33q-48 12 -79 47.5t-31 84.5q0 56 41 95.5t99 39.5h200v-70h-200q-24 0 -42 -19.5t-18 -45.5q0 -23 13 -40.5t33 -22.5l134 -35q48 -12 79 -48t31 -84q0 -56 -41 -95.5t-99 -39.5h-220v70h220q24 0 42 19.5t18 45.5q0 52 -50 65zM272 700h85l-139 -140h-86
z" />
    <glyph glyph-name="Scircumflex" unicode="&#x15c;" horiz-adv-x="530" 
d="M279 0h-219v70h210q57 0 98.5 41t41.5 99q0 47 -29 85.5t-71 47.5l-140 29q-58 12 -94 57t-36 106q0 69 49 117t118 48h243v-70h-234q-39 0 -67.5 -28t-28.5 -67q0 -31 20.5 -58.5t49.5 -33.5l135 -28q72 -15 118 -73t46 -132q0 -87 -61.5 -148.5t-148.5 -61.5zM195 760
h-85l160 160l160 -160h-85l-75 75z" />
    <glyph glyph-name="scircumflex" unicode="&#x15d;" horiz-adv-x="450" 
d="M280 200l-130 33q-48 12 -79 47.5t-31 84.5q0 56 41 95.5t99 39.5h200v-70h-200q-24 0 -42 -19.5t-18 -45.5q0 -23 13 -40.5t33 -22.5l134 -35q48 -12 79 -48t31 -84q0 -56 -41 -95.5t-99 -39.5h-220v70h220q24 0 42 19.5t18 45.5q0 52 -50 65zM150 560h-85l160 160
l160 -160h-85l-75 75z" />
    <glyph glyph-name="Scedilla" unicode="&#x15e;" horiz-adv-x="530" 
d="M489 210q0 -87 -61 -148t-147 -62l-15 -30q34 -4 57 -30t23 -60q0 -37 -28.5 -63.5t-66.5 -26.5q-22 0 -46 5.5t-37 10.5l-12 6v60q49 -24 80 -24q19 0 32 11t13 26q0 19 -11.5 29.5t-28.5 10.5h-50l31 75h-162v70h210q57 0 98.5 41t41.5 99q0 47 -29 85.5t-71 47.5
l-140 29q-58 12 -94 57t-36 106q0 69 49 117t118 48h243v-70h-234q-39 0 -67.5 -28t-28.5 -67q0 -31 20.5 -58.5t49.5 -33.5l135 -28q72 -15 118 -73t46 -132z" />
    <glyph glyph-name="scedilla" unicode="&#x15f;" horiz-adv-x="450" 
d="M280 200l-130 33q-48 12 -79 47.5t-31 84.5q0 56 41 95.5t99 39.5h200v-70h-200q-24 0 -42 -19.5t-18 -45.5q0 -23 13 -40.5t33 -22.5l134 -35q48 -12 79 -48t31 -84q0 -56 -41 -95.5t-99 -39.5h-25l-15 -30q34 -4 57 -30t23 -60q0 -37 -28.5 -63.5t-66.5 -26.5
q-22 0 -46 5.5t-37 10.5l-12 6v60q49 -24 80 -24q19 0 32 11t13 26q0 19 -11.5 29.5t-28.5 10.5h-50l31 75h-136v70h220q24 0 42 19.5t18 45.5q0 52 -50 65z" />
    <glyph glyph-name="Scaron" unicode="&#x160;" horiz-adv-x="530" 
d="M279 0h-219v70h210q57 0 98.5 41t41.5 99q0 47 -29 85.5t-71 47.5l-140 29q-58 12 -94 57t-36 106q0 69 49 117t118 48h243v-70h-234q-39 0 -67.5 -28t-28.5 -67q0 -31 20.5 -58.5t49.5 -33.5l135 -28q72 -15 118 -73t46 -132q0 -87 -61.5 -148.5t-148.5 -61.5zM105 900
h85l75 -75l75 75h85l-160 -160z" />
    <glyph glyph-name="scaron" unicode="&#x161;" horiz-adv-x="450" 
d="M280 200l-130 33q-48 12 -79 47.5t-31 84.5q0 56 41 95.5t99 39.5h200v-70h-200q-24 0 -42 -19.5t-18 -45.5q0 -23 13 -40.5t33 -22.5l134 -35q48 -12 79 -48t31 -84q0 -56 -41 -95.5t-99 -39.5h-220v70h220q24 0 42 19.5t18 45.5q0 52 -50 65zM65 700h85l75 -75l75 75
h85l-160 -160z" />
    <glyph glyph-name="Tcommaaccent" unicode="&#x162;" horiz-adv-x="510" 
d="M215 -210v170h70l-10 -170h-60zM30 630v70h450v-70h-185v-630h-80v630h-185z" />
    <glyph glyph-name="tcommaaccent" unicode="&#x163;" horiz-adv-x="290" 
d="M130 -210v170h70l-10 -170h-60zM200 70h60v-70h-60q-59 0 -99.5 39t-40.5 95v566h80v-200h120v-70h-120v-296q0 -26 17.5 -45t42.5 -19z" />
    <glyph glyph-name="Tcaron" unicode="&#x164;" horiz-adv-x="510" 
d="M30 630v70h450v-70h-185v-630h-80v630h-185zM95 900h85l75 -75l75 75h85l-160 -160z" />
    <glyph glyph-name="tcaron" unicode="&#x165;" horiz-adv-x="310" 
d="M200 550v150h70l-10 -150h-60zM200 70h60v-70h-60q-59 0 -99.5 39t-40.5 95v566h80v-200h120v-70h-120v-296q0 -26 17.5 -45t42.5 -19z" />
    <glyph glyph-name="Tbar" unicode="&#x166;" horiz-adv-x="510" 
d="M30 630v70h450v-70h-185v-172h125v-71h-125v-387h-80v387h-125v71h125v172h-185z" />
    <glyph glyph-name="tbar" unicode="&#x167;" horiz-adv-x="290" 
d="M200 70h60v-70h-60q-59 0 -99.5 39t-40.5 95v566h80v-200h120v-70h-120v-125h100v-70h-100v-101q0 -26 17.5 -45t42.5 -19z" />
    <glyph glyph-name="Utilde" unicode="&#x168;" horiz-adv-x="570" 
d="M510 700v-485q0 -89 -62.5 -152t-151.5 -63h-21q-89 0 -152 63t-63 152v485h80v-495q0 -55 40 -95t95 -40h21q55 0 94.5 39.5t39.5 95.5v495h80zM385 865h55q0 -44 -23.5 -72t-69.5 -28q-26 0 -49.5 19.5t-42.5 39t-35 19.5q-15 0 -25 -11.5t-10 -26.5h-55q0 44 23.5 72
t69.5 28q26 0 49.5 -19.5t42.5 -39t35 -19.5q15 0 25 11.5t10 26.5z" />
    <glyph glyph-name="utilde" unicode="&#x169;" horiz-adv-x="490" 
d="M350 183v317h80v-500h-50l-30 45q-45 -45 -113 -45h-41q-57 0 -96.5 39.5t-39.5 95.5v365h80v-374q0 -23 16.5 -39.5t39.5 -16.5h41q47 0 80 33t33 80zM345 665h55q0 -44 -23.5 -72t-69.5 -28q-26 0 -49.5 19.5t-42.5 39t-35 19.5q-15 0 -25 -11.5t-10 -26.5h-55
q0 44 23.5 72t69.5 28q26 0 49.5 -19.5t42.5 -39t35 -19.5q15 0 25 11.5t10 26.5z" />
    <glyph glyph-name="Umacron" unicode="&#x16a;" horiz-adv-x="570" 
d="M510 700v-485q0 -89 -62.5 -152t-151.5 -63h-21q-89 0 -152 63t-63 152v485h80v-495q0 -55 40 -95t95 -40h21q55 0 94.5 39.5t39.5 95.5v495h80zM170 760v60h230v-60h-230z" />
    <glyph glyph-name="umacron" unicode="&#x16b;" horiz-adv-x="490" 
d="M350 183v317h80v-500h-50l-30 45q-45 -45 -113 -45h-41q-57 0 -96.5 39.5t-39.5 95.5v365h80v-374q0 -23 16.5 -39.5t39.5 -16.5h41q47 0 80 33t33 80zM130 570v60h230v-60h-230z" />
    <glyph glyph-name="Ubreve" unicode="&#x16c;" horiz-adv-x="570" 
d="M510 700v-485q0 -89 -62.5 -152t-151.5 -63h-21q-89 0 -152 63t-63 152v485h80v-495q0 -55 40 -95t95 -40h21q55 0 94.5 39.5t39.5 95.5v495h80zM355 895h55q0 -54 -35 -94.5t-90 -40.5t-90 40t-35 95h55q0 -32 20.5 -56t49.5 -24t49.5 24t20.5 56z" />
    <glyph glyph-name="ubreve" unicode="&#x16d;" horiz-adv-x="490" 
d="M350 183v317h80v-500h-50l-30 45q-45 -45 -113 -45h-41q-57 0 -96.5 39.5t-39.5 95.5v365h80v-374q0 -23 16.5 -39.5t39.5 -16.5h41q47 0 80 33t33 80zM315 700h55q0 -54 -35 -94.5t-90 -40.5t-90 40t-35 95h55q0 -32 20.5 -56t49.5 -24t49.5 24t20.5 56z" />
    <glyph glyph-name="Uring" unicode="&#x16e;" horiz-adv-x="570" 
d="M510 700v-485q0 -89 -62.5 -152t-151.5 -63h-21q-89 0 -152 63t-63 152v485h80v-495q0 -55 40 -95t95 -40h21q55 0 94.5 39.5t39.5 95.5v495h80zM180 855q0 43 31 74t74 31t74 -31t31 -74t-31 -74t-74 -31t-74 31t-31 74zM235 855q0 -21 14.5 -35.5t35.5 -14.5t35.5 14.5
t14.5 35.5t-14.5 35.5t-35.5 14.5t-35.5 -14.5t-14.5 -35.5z" />
    <glyph glyph-name="uring" unicode="&#x16f;" horiz-adv-x="490" 
d="M350 183v317h80v-500h-50l-30 45q-45 -45 -113 -45h-41q-57 0 -96.5 39.5t-39.5 95.5v365h80v-374q0 -23 16.5 -39.5t39.5 -16.5h41q47 0 80 33t33 80zM140 660q0 44 31 74.5t74 30.5t74 -30.5t31 -74.5t-31 -74.5t-74 -30.5t-74 30.5t-31 74.5zM195 660
q0 -21 14.5 -35.5t35.5 -14.5t35.5 14.5t14.5 35.5t-14.5 35.5t-35.5 14.5t-35.5 -14.5t-14.5 -35.5z" />
    <glyph glyph-name="Uhungarumlaut" unicode="&#x170;" horiz-adv-x="570" 
d="M510 700v-485q0 -89 -62.5 -152t-151.5 -63h-21q-89 0 -152 63t-63 152v485h80v-495q0 -55 40 -95t95 -40h21q55 0 94.5 39.5t39.5 95.5v495h80zM435 890h85l-130 -130h-85zM265 890h85l-130 -130h-85z" />
    <glyph glyph-name="uhungarumlaut" unicode="&#x171;" horiz-adv-x="490" 
d="M350 183v317h80v-500h-50l-30 45q-45 -45 -113 -45h-41q-57 0 -96.5 39.5t-39.5 95.5v365h80v-374q0 -23 16.5 -39.5t39.5 -16.5h41q47 0 80 33t33 80zM390 700h85l-130 -130h-85zM220 700h85l-130 -130h-85z" />
    <glyph glyph-name="Uogonek" unicode="&#x172;" horiz-adv-x="570" 
d="M299 -152q12 0 30.5 7t30.5 13l12 7v-60q-33 -25 -88 -25q-41 0 -70.5 27t-29.5 68q0 33 23.5 65t46.5 51q-82 8 -138 69t-56 145v485h80v-495q0 -55 40 -95t95 -40h21q55 0 94.5 39.5t39.5 95.5v495h80v-485q0 -80 -51 -139.5t-127 -72.5q-78 -68 -78 -113q0 -42 45 -42
z" />
    <glyph glyph-name="uogonek" unicode="&#x173;" horiz-adv-x="490" 
d="M390 -152q12 0 30.5 7t30.5 13l12 7v-60q-33 -25 -88 -25q-41 0 -70.5 27t-29.5 68q0 27 18.5 57t37.5 46l19 17v40q-45 -45 -113 -45h-41q-57 0 -96.5 39.5t-39.5 95.5v365h80v-374q0 -23 16.5 -39.5t39.5 -16.5h41q47 0 80 33t33 80v317h80v-500h-11q-74 -68 -74 -110
t45 -42z" />
    <glyph glyph-name="Wcircumflex" unicode="&#x174;" horiz-adv-x="995" 
d="M240 0l-220 700h84l176 -570l176 570h84l176 -570l176 570h84l-220 -700h-80l-178 570l-178 -570h-80zM422 760h-85l160 160l160 -160h-85l-75 75z" />
    <glyph glyph-name="wcircumflex" unicode="&#x175;" horiz-adv-x="750" 
d="M220 125l116 375h78l116 -375l116 375h84l-160 -500h-80l-116 359l-114 -359h-80l-160 500h84zM300 560h-85l160 160l160 -160h-85l-75 75z" />
    <glyph glyph-name="Ycircumflex" unicode="&#x176;" horiz-adv-x="520" 
d="M300 0h-80v370l-200 330h92l148 -250l148 250h92l-200 -330v-370zM185 760h-85l160 160l160 -160h-85l-75 75z" />
    <glyph glyph-name="ycircumflex" unicode="&#x177;" horiz-adv-x="490" 
d="M350 -47v92q-45 -45 -116 -45h-38q-57 0 -96.5 39.5t-39.5 95.5v365h80v-375q0 -23 16.5 -39t39.5 -16h38q47 0 81.5 32t34.5 78v320h80v-540q0 -79 -57.5 -134.5t-137.5 -55.5h-115v70h117q47 0 80 33t33 80zM170 560h-85l160 160l160 -160h-85l-75 75z" />
    <glyph glyph-name="Ydieresis" unicode="&#x178;" horiz-adv-x="520" 
d="M300 0h-80v370l-200 330h92l148 -250l148 250h92l-200 -330v-370zM130 760v80h80v-80h-80zM310 760v80h80v-80h-80z" />
    <glyph glyph-name="Zacute" unicode="&#x179;" horiz-adv-x="490" 
d="M40 630v70h435l-330 -630h315v-70h-440l330 630h-310zM295 900h85l-139 -140h-86z" />
    <glyph glyph-name="zacute" unicode="&#x17a;" horiz-adv-x="425" 
d="M30 430v70h373l-250 -430h242v-70h-375l250 430h-240zM260 700h85l-139 -140h-86z" />
    <glyph glyph-name="Zdotaccent" unicode="&#x17b;" horiz-adv-x="490" 
d="M40 630v70h435l-330 -630h315v-70h-440l330 630h-310zM203 760v90h90v-90h-90z" />
    <glyph glyph-name="zdotaccent" unicode="&#x17c;" horiz-adv-x="425" 
d="M30 430v70h373l-250 -430h242v-70h-375l250 430h-240zM167 570v90h90v-90h-90z" />
    <glyph glyph-name="Zcaron" unicode="&#x17d;" horiz-adv-x="490" 
d="M40 630v70h435l-330 -630h315v-70h-440l330 630h-310zM87 900h85l75 -75l75 75h85l-160 -160z" />
    <glyph glyph-name="zcaron" unicode="&#x17e;" horiz-adv-x="425" 
d="M30 430v70h373l-250 -430h242v-70h-375l250 430h-240zM52 700h85l75 -75l75 75h85l-160 -160z" />
    <glyph glyph-name="florin" unicode="&#x192;" horiz-adv-x="420" 
d="M207 387l-87 -387h-80l87 387h-87v71h102l28 110q14 55 60.5 93.5t103.5 38.5h71l-14 -70h-67q-25 0 -47 -20t-29 -48l-26 -104h124l-15 -71h-124z" />
    <glyph glyph-name="circumflex" unicode="&#x2c6;" horiz-adv-x="420" 
d="M135 560h-85l160 160l160 -160h-85l-75 75z" />
    <glyph glyph-name="caron" unicode="&#x2c7;" horiz-adv-x="420" 
d="M50 700h85l75 -75l75 75h85l-160 -160z" />
    <glyph glyph-name="breve" unicode="&#x2d8;" horiz-adv-x="360" 
d="M250 700h55q0 -54 -35 -94.5t-90 -40.5t-90 40t-35 95h55q0 -32 20.5 -56t49.5 -24t49.5 24t20.5 56z" />
    <glyph glyph-name="dotaccent" unicode="&#x2d9;" horiz-adv-x="190" 
d="M50 570v90h90v-90h-90z" />
    <glyph glyph-name="ring" unicode="&#x2da;" horiz-adv-x="320" 
d="M55 655q0 43 30.5 74t74.5 31t74.5 -31t30.5 -74t-30.5 -74t-74.5 -31t-74.5 31t-30.5 74zM110 655q0 -21 14.5 -35.5t35.5 -14.5t35.5 14.5t14.5 35.5t-14.5 35.5t-35.5 14.5t-35.5 -14.5t-14.5 -35.5z" />
    <glyph glyph-name="ogonek" unicode="&#x2db;" horiz-adv-x="300" 
d="M170 -152q12 0 30.5 7t30.5 13l12 7v-60q-33 -25 -88 -25q-41 0 -70.5 27t-29.5 68q0 27 18.5 57t37.5 46l19 17h75q-80 -72 -80 -115q0 -42 45 -42z" />
    <glyph glyph-name="tilde" unicode="&#x2dc;" horiz-adv-x="420" 
d="M310 665h55q0 -44 -23.5 -72t-69.5 -28q-26 0 -49.5 19.5t-42.5 39t-35 19.5q-15 0 -25 -11.5t-10 -26.5h-55q0 44 23.5 72t69.5 28q26 0 49.5 -19.5t42.5 -39t35 -19.5q15 0 25 11.5t10 26.5z" />
    <glyph glyph-name="hungarumlaut" unicode="&#x2dd;" horiz-adv-x="490" 
d="M350 700h85l-130 -130h-85zM180 700h85l-130 -130h-85z" />
    <glyph glyph-name="Delta" unicode="&#x394;" horiz-adv-x="550" 
d="M30 45l205 655h80l205 -655v-45h-490v45zM275 573l-157 -503h313q-7 23 -66 211.5t-90 291.5z" />
    <glyph glyph-name="Delta" unicode="&#x2206;" horiz-adv-x="550" 
d="M30 45l205 655h80l205 -655v-45h-490v45zM275 573l-157 -503h313q-7 23 -66 211.5t-90 291.5z" />
    <glyph glyph-name="Omega" unicode="&#x3a9;" horiz-adv-x="590" 
d="M550 70v-70h-225v70q53 7 89 44.5t36 88.5v321q0 43 -31.5 74.5t-74.5 31.5h-99q-43 0 -74 -31.5t-31 -74.5v-321q0 -51 35.5 -88.5t89.5 -44.5v-70h-225v70h78q-58 53 -58 143v301q0 77 54 131.5t131 54.5h99q77 0 131.5 -54.5t54.5 -131.5v-301q0 -90 -58 -143h78z" />
    <glyph glyph-name="Omega" unicode="&#x2126;" horiz-adv-x="590" 
d="M550 70v-70h-225v70q53 7 89 44.5t36 88.5v321q0 43 -31.5 74.5t-74.5 31.5h-99q-43 0 -74 -31.5t-31 -74.5v-321q0 -51 35.5 -88.5t89.5 -44.5v-70h-225v70h78q-58 53 -58 143v301q0 77 54 131.5t131 54.5h99q77 0 131.5 -54.5t54.5 -131.5v-301q0 -90 -58 -143h78z" />
    <glyph glyph-name="pi" unicode="&#x3c0;" horiz-adv-x="510" 
d="M30 430v70h450v-70h-60v-430h-80v430h-131l-39 -430h-80l40 430h-100z" />
    <glyph glyph-name="endash" unicode="&#x2013;" horiz-adv-x="430" 
d="M40 220v70h350v-70h-350z" />
    <glyph glyph-name="emdash" unicode="&#x2014;" horiz-adv-x="780" 
d="M40 220v70h700v-70h-700z" />
    <glyph glyph-name="quoteleft" unicode="&#x2018;" horiz-adv-x="200" 
d="M140 700v-200h-90l10 200h80z" />
    <glyph glyph-name="quoteright" unicode="&#x2019;" horiz-adv-x="200" 
d="M60 500v200h90l-10 -200h-80z" />
    <glyph glyph-name="quotesinglbase" unicode="&#x201a;" horiz-adv-x="200" 
d="M60 -110v200h90l-10 -200h-80z" />
    <glyph glyph-name="quotedblleft" unicode="&#x201c;" horiz-adv-x="350" 
d="M290 700v-200h-90l10 200h80zM140 700v-200h-90l10 200h80z" />
    <glyph glyph-name="quotedblright" unicode="&#x201d;" horiz-adv-x="350" 
d="M210 500v200h90l-10 -200h-80zM60 500v200h90l-10 -200h-80z" />
    <glyph glyph-name="quotedblbase" unicode="&#x201e;" horiz-adv-x="350" 
d="M60 -110v200h90l-10 -200h-80zM210 -110v200h90l-10 -200h-80z" />
    <glyph glyph-name="dagger" unicode="&#x2020;" horiz-adv-x="480" 
d="M40 430v70h160v200h80v-200h160v-70h-160v-430h-80v430h-160z" />
    <glyph glyph-name="daggerdbl" unicode="&#x2021;" horiz-adv-x="480" 
d="M40 200v70h160v160h-160v70h160v200h80v-200h160v-70h-160v-160h160v-70h-160v-200h-80v200h-160z" />
    <glyph glyph-name="bullet" unicode="&#x2022;" horiz-adv-x="300" 
d="M40 350q0 46 32 78t78 32t78 -32t32 -78t-32 -78t-78 -32t-78 32t-32 78z" />
    <glyph glyph-name="ellipsis" unicode="&#x2026;" horiz-adv-x="620" 
d="M265 0v90h90v-90h-90zM470 0v90h90v-90h-90zM60 0v90h90v-90h-90z" />
    <glyph glyph-name="perthousand" unicode="&#x2030;" horiz-adv-x="1060" 
d="M720 150q0 62 44 106t106 44t106 -44t44 -106t-44 -106t-106 -44t-106 44t-44 106zM790 150q0 -33 23.5 -56.5t56.5 -23.5t56.5 23.5t23.5 56.5t-23.5 56.5t-56.5 23.5t-56.5 -23.5t-23.5 -56.5zM380 150q0 62 44 106t106 44t106 -44t44 -106t-44 -106t-106 -44t-106 44
t-44 106zM450 150q0 -33 23.5 -56.5t56.5 -23.5t56.5 23.5t23.5 56.5t-23.5 56.5t-56.5 23.5t-56.5 -23.5t-23.5 -56.5zM40 550q0 62 44 106t106 44t106 -44t44 -106t-44 -106t-106 -44t-106 44t-44 106zM110 550q0 -33 23.5 -56.5t56.5 -23.5t56.5 23.5t23.5 56.5
t-23.5 56.5t-56.5 23.5t-56.5 -23.5t-23.5 -56.5zM100 0l434 700h86l-434 -700h-86z" />
    <glyph glyph-name="guilsinglleft" unicode="&#x2039;" horiz-adv-x="290" 
d="M170 50l-140 200l140 200h87l-140 -200l140 -200h-87z" />
    <glyph glyph-name="guilsinglright" unicode="&#x203a;" horiz-adv-x="290" 
d="M260 250l-140 -200h-87l140 200l-140 200h87z" />
    <glyph glyph-name="fraction" unicode="&#x2044;" horiz-adv-x="520" 
d="M0 0l432 700h88l-431 -700h-89z" />
    <glyph glyph-name="Euro" unicode="&#x20ac;" horiz-adv-x="530" 
d="M30 420v70h70v27q0 76 53.5 129.5t129.5 53.5h217v-70h-217q-42 0 -72.5 -31t-30.5 -73v-36h300v-70h-300v-105h300v-70h-300q1 -71 50.5 -123t119.5 -52h150v-70h-150q-99 0 -171.5 72.5t-78.5 172.5h-70v70h70v105h-70z" />
    <glyph glyph-name="trademark" unicode="&#x2122;" horiz-adv-x="640" 
d="M30 640v60h240v-60h-85v-290h-70v290h-85zM445 560l80 140h65v-350h-70v211l-75 -127l-75 127v-211h-70v350h65z" />
    <glyph glyph-name="partialdiff" unicode="&#x2202;" horiz-adv-x="490" 
d="M360 452v33q0 60 -41.5 102.5t-99.5 42.5h-129v70h129q90 0 155.5 -69.5t65.5 -160.5v-286q0 -76 -53.5 -130t-129.5 -54h-24q-76 0 -129.5 53.5t-53.5 129.5v134q0 64 44.5 108.5t109.5 44.5h77q49 0 79 -18zM360 174v152q0 30 -24 52t-55 22h-77q-31 0 -52.5 -21.5
t-21.5 -52.5v-152q0 -43 30.5 -73.5t72.5 -30.5h24q42 0 72.5 30.5t30.5 73.5z" />
    <glyph glyph-name="product" unicode="&#x220f;" 
d="M30 630v70h500v-70h-95v-630h-80v630h-150v-630h-80v630h-95z" />
    <glyph glyph-name="summation" unicode="&#x2211;" horiz-adv-x="480" 
d="M327 350l-179 -280h302v-70h-430l220 350l-220 350h430v-70h-302z" />
    <glyph glyph-name="minus" unicode="&#x2212;" 
d="M40 220v70h480v-70h-480z" />
    <glyph glyph-name="radical" unicode="&#x221a;" horiz-adv-x="500" 
d="M30 330v70h130l110 -350l151 700h79l-191 -850h-74l-135 430h-70z" />
    <glyph glyph-name="infinity" unicode="&#x221e;" horiz-adv-x="680" 
d="M340 188l-18 -26q-47 -67 -128 -67q-64 0 -109 45t-45 110t45 110t109 45q81 0 128 -68l18 -26l18 26q48 68 128 68q64 0 109 -45t45 -110t-45 -110t-109 -45q-82 0 -128 67zM486 334q-19 0 -34 -5.5t-28.5 -20t-20.5 -25.5t-21 -34q18 -30 28.5 -44t30.5 -26.5t45 -12.5
q34 0 59 25t25 59t-25 59t-59 25zM194 166q25 0 45.5 13t30.5 27t28 44q-18 30 -28 44t-30.5 27t-45.5 13q-34 0 -59 -25t-25 -59t25 -59t59 -25z" />
    <glyph glyph-name="integral" unicode="&#x222b;" horiz-adv-x="370" 
d="M145 -37v603q0 76 57.5 130t137.5 54v-70q-47 0 -81 -31t-34 -73v-603q0 -76 -57.5 -129.5t-137.5 -53.5v70q47 0 81 30.5t34 72.5z" />
    <glyph glyph-name="approxequal" unicode="&#x2248;" 
d="M40 110v70q7 6 19 14t46 22t65 14q58 0 118 -30t102 -30q31 0 63.5 12.5t49.5 25.5l17 12v-70q-7 -6 -19 -14t-46 -22t-65 -14q-58 0 -118 30t-102 30q-31 0 -63.5 -12.5t-49.5 -25.5zM40 290v70q7 6 19 14t46 22t65 14q58 0 118 -30t102 -30q31 0 63.5 12.5t49.5 25.5
l17 12v-70q-7 -6 -19 -14t-46 -22t-65 -14q-58 0 -118 30t-102 30q-31 0 -63.5 -12.5t-49.5 -25.5z" />
    <glyph glyph-name="notequal" unicode="&#x2260;" 
d="M40 310v70h252l48 120h80l-48 -120h148v-70h-176l-44 -110h220v-70h-248l-52 -130h-80l52 130h-152v70h180l44 110h-224z" />
    <glyph glyph-name="lessequal" unicode="&#x2264;" horiz-adv-x="520" 
d="M40 280v70l440 173v-76l-345 -132l345 -132v-75zM40 0v70h440v-70h-440z" />
    <glyph glyph-name="greaterequal" unicode="&#x2265;" horiz-adv-x="520" 
d="M480 350v-70l-440 -172v75l345 132l-345 132v76zM480 70v-70h-440v70h440z" />
    <glyph glyph-name="lozenge" unicode="&#x25ca;" horiz-adv-x="470" 
d="M200 700h70l170 -350l-170 -350h-70l-170 350zM235 88l127 262l-127 262l-127 -262z" />
    <glyph glyph-name="nine.salt" unicode="&#xe000;" horiz-adv-x="535" 
d="M485 517v-267q0 -104 -73.5 -177t-177.5 -73h-154v70h154q70 0 120.5 50t50.5 120v57l-221 52q-62 15 -103 61.5t-41 109.5q0 74 54.5 127t130.5 53h75q76 0 130.5 -53.5t54.5 -129.5zM405 370v147q0 46 -34 79.5t-81 33.5h-65q-42 0 -73.5 -31t-31.5 -73v-9
q0 -36 24 -64.5t60 -36.5z" />
    <glyph glyph-name="three.salt" unicode="&#xe001;" horiz-adv-x="515" 
d="M30 0v70h215q61 0 105.5 48t44.5 112q0 65 -45.5 113.5t-109.5 48.5q-23 0 -39 -4l-131 -29v68l236 52q25 5 42 27.5t17 48.5q0 31 -22 53t-53 22h-260v70h270q60 0 102.5 -42.5t42.5 -102.5q0 -39 -26.5 -76t-64.5 -53q50 -24 85.5 -80.5t35.5 -115.5q0 -94 -68 -162
t-162 -68h-215z" />
    <glyph glyph-name="A.salt" unicode="&#xe480;" horiz-adv-x="570" 
d="M140 318v-318h-80v390q0 129 90.5 219.5t219.5 90.5h140v-700h-80v386zM430 455v175h-60q-95 0 -162.5 -67.5t-67.5 -162.5v-11z" />
    <glyph glyph-name="B.salt" unicode="&#xe481;" horiz-adv-x="550" 
d="M280 0h-220v700h273q61 0 104 -42t43 -103q0 -41 -26.5 -77.5t-65.5 -54.5q50 -27 86 -81t36 -112q0 -95 -67.5 -162.5t-162.5 -67.5zM140 363v-293h140q60 0 105 48t45 112q0 65 -48 111t-112 46q-27 0 -40 -3zM140 433l200 45q25 6 42.5 28.5t17.5 48.5q0 31 -22.5 53
t-54.5 22h-183v-197z" />
    <glyph glyph-name="E.salt" unicode="&#xe484;" horiz-adv-x="500" 
d="M60 0v700h410v-70h-330v-130h290v-70h-290v-360h330v-70h-410z" />
    <glyph glyph-name="F.salt" unicode="&#xe485;" horiz-adv-x="500" 
d="M60 0v700h410v-70h-330v-130h290v-70h-290v-430h-80z" />
    <glyph glyph-name="G.salt" unicode="&#xe486;" 
d="M280 430v70h220v-500h-195q-106 0 -180.5 74t-74.5 179v263q0 77 54.5 130.5t132.5 53.5h243v-70h-243q-43 0 -75 -31t-32 -73v-284q0 -71 51.5 -121.5t123.5 -50.5h115v360h-140z" />
    <glyph glyph-name="H.salt" unicode="&#xe487;" horiz-adv-x="570" 
d="M430 0v430h-290v-430h-80v700h80v-200h290v200h80v-700h-80z" />
    <glyph glyph-name="P.salt" unicode="&#xe48f;" horiz-adv-x="540" 
d="M390 390l-250 -58v-332h-80v700h292q66 0 112 -45t46 -110q0 -54 -34.5 -98.5t-85.5 -56.5zM140 630v-228l227 54q27 7 45 33t18 56q0 35 -25 60t-60 25h-205z" />
    <glyph glyph-name="R.salt" unicode="&#xe491;" horiz-adv-x="550" 
d="M425 0l-185 354l-100 -23v-331h-80v700h293q65 0 111 -45t46 -110q0 -55 -34.5 -100t-85.5 -56l-70 -16q134 -255 195 -373h-90zM140 630v-226l228 53q26 6 44 32t18 56q0 35 -26 60t-61 25h-203z" />
    </font>
</defs>
</svg>
