<?xml version="1.0" encoding="UTF-8" standalone="no"?>
<!-- Generator: Adobe Illustrator 18.0.0, SVG Export Plug-In . SVG Version: 6.00 Build 0)  -->

<svg
   xmlns:dc="http://purl.org/dc/elements/1.1/"
   xmlns:cc="http://creativecommons.org/ns#"
   xmlns:rdf="http://www.w3.org/1999/02/22-rdf-syntax-ns#"
   xmlns:svg="http://www.w3.org/2000/svg"
   xmlns="http://www.w3.org/2000/svg"
   xmlns:sodipodi="http://sodipodi.sourceforge.net/DTD/sodipodi-0.dtd"
   xmlns:inkscape="http://www.inkscape.org/namespaces/inkscape"
   version="1.1"
   id="Calque_1"
   x="0px"
   y="0px"
   viewBox="0 0 352.19999 185.1"
   enable-background="new 0 0 841.9 595.3"
   xml:space="preserve"
   inkscape:version="0.48.5 r10040"
   width="100%"
   height="100%"
   sodipodi:docname="logoAV.svg"><metadata
   id="metadata70"><rdf:RDF><cc:Work
       rdf:about=""><dc:format>image/svg+xml</dc:format><dc:type
         rdf:resource="http://purl.org/dc/dcmitype/StillImage" /></cc:Work></rdf:RDF></metadata><defs
   id="defs68" /><sodipodi:namedview
   pagecolor="#ffffff"
   bordercolor="#666666"
   borderopacity="1"
   objecttolerance="10"
   gridtolerance="10"
   guidetolerance="10"
   inkscape:pageopacity="0"
   inkscape:pageshadow="2"
   inkscape:window-width="1450"
   inkscape:window-height="884"
   id="namedview66"
   showgrid="false"
   fit-margin-top="0"
   fit-margin-left="0"
   fit-margin-right="0"
   fit-margin-bottom="0"
   inkscape:zoom="1.5857551"
   inkscape:cx="179.87242"
   inkscape:cy="108.42863"
   inkscape:window-x="0"
   inkscape:window-y="0"
   inkscape:window-maximized="0"
   inkscape:current-layer="Calque_1" />
<g
   id="g3"
   transform="translate(-237.20002,-69.1)">
	<path
   d="m 372.6,117.4 -0.8,-1.2 -0.5,1.3 c -8,23.1 -37.7,43.3 -41.2,45.6 -6.2,-3.6 -7.7,-5.4 -7.7,-5.4 l -0.4,-0.5 -0.5,0.3 c -2.2,1.4 -12.6,9.4 -15.4,11.6 l -8.3,6.2 8.3,-4.5 0,0 2.5,-1.4 0,0 13.2,-7.4 c 1.6,1.3 6.3,4.9 8.1,4.9 0.3,0 0.9,-0.2 1.8,-0.6 6.3,-2.8 25.1,-15.8 39.8,-33.4 0.5,-0.6 1.1,-1.3 1.6,-2 0,0 23.1,19 34.2,17 l -2.9,-0.4 c -0.1,0.1 -13,-2.1 -31.8,-30.1 z"
   id="path5"
   inkscape:connector-curvature="0"
   style="fill:#7a231f" />
	<path
   d="m 510,125.3 -0.7,-1.2 -0.5,1.3 c -4.1,10.5 -17.7,20.2 -17.9,20.3 l -3.2,2.3 3.8,-1 c 0.3,-0.1 7.3,-2 18.2,-12.1 2.8,3.5 17.2,20.5 30,22.5 0.2,0 0.4,0.1 0.6,0.1 -17.8,-6.8 -30.1,-31.9 -30.3,-32.2 z"
   id="path7"
   inkscape:connector-curvature="0"
   style="fill:#7a231f" />
	<path
   d="m 480.8,149.6 c 0.3,-0.5 -0.3,-1.4 -0.6,-1.5 -0.3,0 0.1,-0.2 0.1,-0.5 0,-0.3 -0.3,-1 -0.7,-1.4 -0.4,-0.4 -0.5,-0.7 -0.2,-1.5 0.4,-0.8 0,-2.1 0,-2.8 0,-0.7 -0.1,-6.4 -2.1,-8 -2,-1.6 -2.9,-3 -6,-4.3 -3.1,-1.3 -3.2,-2.7 -3.9,-3.5 -0.7,-0.8 -6,-5.3 -8.5,-5.3 -0.1,0 -0.1,0 -0.2,0 -2.4,0.2 -5.9,3.7 -6.7,5 -0.9,1.3 -3,1.8 -4.5,1.9 -1.5,0.1 -3.7,0.8 -8.6,5.5 -2,2 -3.7,2.7 -5,2.7 -1.9,0 -3.1,-1.5 -3.8,-3.2 -1.2,-2.8 -2,-7.5 -4.2,-9.3 0,0 0,-1.1 -0.3,-1.1 -0.3,0 -0.7,0.1 -1.4,0.7 0,0 -0.3,0 -0.8,0 -0.5,0 -1.1,0.1 -1.5,0.3 -0.5,0.4 -1.4,0.4 -2.1,0.4 -0.2,0 -0.4,0 -0.6,0 -0.3,0 -1.2,-0.1 -2.1,-0.1 -1.1,0 -2.2,0.1 -2.5,0.5 -0.5,0.8 -1.6,2.1 -1.4,2.4 0.2,0.3 0.3,0.5 0.6,0.6 0,0 -0.6,0.5 -0.5,0.7 0.1,0.1 0.2,0.1 0.4,0.1 0.3,0 0.8,-0.1 1.3,-0.1 0,0 0.1,0 0.1,0 0.7,0 1.6,0.2 2.2,0.5 0.6,0.3 4,1.1 4.5,2.2 0.5,1.1 4.6,11.5 10.1,13.3 1.4,0.5 4,0.6 6,0.6 1.1,0 2,-0.1 2.3,-0.1 0,0 2.4,2.3 3.6,2.4 0,0 0.2,0.2 0.3,0.5 0.1,0.3 3.2,7.7 3.4,8.5 0.2,0.8 0.8,3.1 0.6,3.6 -0.1,0.5 0.3,0.5 0.5,0.9 0.2,0.4 0.5,1.3 0.5,2.7 0,1.3 0.1,5.2 -0.3,5.5 -0.3,0.3 -0.7,0.4 -1,0.4 -0.1,0 -0.2,0 -0.4,-0.1 -0.1,0 -0.1,0 -0.2,0 -0.3,0 -0.6,0.3 -0.7,0.5 -0.2,0.2 -0.1,0.7 0.1,0.8 0.1,0.1 2.2,0.5 3.7,0.5 0.8,0 1.4,-0.1 1.5,-0.5 0.2,-1.2 -0.2,-1.9 -0.3,-2.4 0,-0.5 -0.4,-6.6 -0.2,-8.6 0.2,-1 -0.2,-1.2 -0.3,-1.8 -0.2,-0.6 -0.8,-3.6 -0.8,-4 0,-0.4 -0.9,-4.6 -0.6,-5.6 0,0 1.2,0.1 2.9,0.1 4,0 11,-0.4 14.5,-3.1 0,0 2.1,1.3 2.6,3.5 0.5,2.2 1.3,2.7 1.8,3.5 0.5,0.8 0.7,1.4 0.7,2.6 0,1.1 0.5,3.8 0.4,4.6 -0.2,0.8 -0.5,3 -0.6,3.5 -0.2,0.5 -1.4,6 -3.5,6.7 -2.1,0.7 -2.2,1.3 -2,1.3 0,0 0,0 0.1,0 0.4,0 1.5,0 1.7,0.2 0.1,0.1 0.3,0.1 0.5,0.1 0.4,0 1.1,-0.1 1.6,-0.4 0.8,-0.4 0.2,-0.3 0.8,-1.1 0.5,-0.8 0.2,-1 0.6,-1.9 0.4,-0.9 1.7,-3.5 1.7,-3.5 0,0 -0.7,4.8 -1.9,6.1 -1.2,1.2 -2.3,2.2 -2.8,2.2 0,0 0,0 0,0 0,0 0,0 0,0 -0.5,0 -1.1,1 -0.6,1.2 0.4,0.1 1.2,0.5 2,0.5 0.2,0 0.4,0 0.6,-0.1 0.9,-0.3 1.9,-0.2 2,-0.4 0.1,-0.2 0.2,-0.6 0.3,-0.9 0.1,-0.2 0.4,-1.1 0.4,-1.4 0,-0.3 1.8,-6.9 4.5,-11 0.6,-0.8 -0.2,-1.1 -0.2,-1.7 0,-0.6 -1.1,-5.1 -0.4,-7.8 0.2,-0.8 0.3,-1.1 0.4,-1.1 0.1,0 -0.1,1.4 -0.1,1.4 0,0 0.4,1.1 0.4,1.6 0,0.5 0,1.4 0.1,1.4 0,0 0,0 0.1,-0.1 0.2,-0.3 0.2,-1.2 0.3,-1.2 0,0 0,0 0,0 0.1,0 0,2.2 0.2,2.2 0,0 0,0 0,0 0.2,-0.3 0.4,-2.4 0.9,-2.8 0.5,-0.4 1.3,-0.7 1.4,-1.1 0.1,-0.4 -0.4,-0.7 -0.2,-1.1 z"
   id="path9"
   inkscape:connector-curvature="0"
   style="fill:#f39200" />
	<g
   id="g11">
		<path
   d="m 246.8,253.7 c -2.4,-3.5 -5.2,-9 -8.4,-16.4 l 2.3,2.5 c 2.1,3 4.2,6.6 6.2,10.9 1.7,-4 3.7,-8 6.1,-12.1 l 1.5,-1.5 c -4.5,11 -7,16.5 -7.7,16.6 z"
   id="path13"
   inkscape:connector-curvature="0"
   style="fill:#f59c00" />
		<path
   d="m 283.8,237.3 1.4,0.1 c 0.7,0.2 1.2,0.3 1.5,0.5 0.3,0.2 0.6,0.3 0.9,0.6 0.3,0.2 0.6,0.5 0.9,0.7 0.3,0.3 0.6,0.6 0.9,0.9 0.2,0.3 0.5,0.7 0.8,1.1 0.3,0.4 0.5,1 0.8,1.8 0.2,0.6 0.3,1.1 0.4,1.5 0.1,0.9 0.1,1.5 0.1,1.9 -0.1,0.4 -0.1,0.8 -0.2,1.2 -0.1,0.4 -0.2,0.8 -0.3,1.2 -0.1,0.4 -0.3,0.8 -0.7,1.3 l -0.5,0.6 -0.4,0.4 c -0.1,0.2 -0.3,0.5 -0.7,0.8 -0.4,0.3 -0.7,0.5 -1,0.8 -0.3,0.2 -0.7,0.4 -1.3,0.6 -0.5,0.2 -1,0.3 -1.3,0.4 -0.4,0.1 -0.8,0.2 -1.4,0.2 -0.6,0.1 -1.1,0.1 -1.8,0 -0.5,0 -0.8,-0.1 -0.9,-0.1 -0.2,0 -0.4,-0.1 -0.6,-0.2 -0.3,-0.1 -0.8,-0.3 -1.5,-0.7 -0.6,-0.5 -1.3,-1 -1.9,-1.7 l -0.7,-1.1 c -0.3,-0.6 -0.4,-1 -0.5,-1.4 -0.1,-0.3 -0.2,-0.8 -0.3,-1.3 -0.1,-1.7 0,-3.1 0.3,-4.2 0.2,-0.6 0.6,-1.5 1.2,-2.6 1.1,-1.1 1.9,-1.8 2.4,-2 0,-0.1 0.2,-0.2 0.5,-0.3 1.2,-0.7 2.5,-1 3.9,-1 z m -1.7,2.1 c -1,0.4 -1.7,0.7 -2.1,1 -0.4,0.3 -0.7,0.7 -1,1.2 l -0.7,0.9 c -0.3,1 -0.4,1.5 -0.4,1.5 -0.1,0.4 -0.1,0.6 -0.1,0.6 l -0.1,0.4 v 0.9 c 0,0.3 0,0.7 0.1,1.3 0.2,0.8 0.5,1.4 0.9,2 l 0.3,0.8 c 0.6,1 1.6,1.7 2.9,2 1,0.2 1.7,0.2 1.9,0.2 0.3,0 0.7,-0.1 1.1,-0.2 l 0.9,-0.4 1.1,-0.7 1.2,-1.3 0.9,-1.5 c 0.5,-1.3 0.6,-2.3 0.4,-3 l -0.2,-0.9 -0.2,-0.8 c -0.1,-0.4 -0.2,-0.7 -0.3,-0.9 l -0.4,-0.7 -0.4,-0.8 c -0.5,-0.7 -1.4,-1.3 -2.6,-1.5 l -0.9,-0.2 -1.2,0 -1.1,0.1 z"
   id="path15"
   inkscape:connector-curvature="0"
   style="fill:#f59c00" />
		<path
   d="m 323.2,238.4 c 0.1,-0.1 0.3,-0.3 0.5,-0.4 0.2,-0.1 0.4,-0.3 0.8,-0.4 0.4,-0.2 0.8,-0.3 1.2,-0.3 -0.1,0.5 -0.4,1 -0.8,1.6 -0.1,0.1 -0.1,0.1 -0.1,0.2 L 324,240 c -0.4,0.5 -0.7,0.9 -1.1,1.3 -0.4,0.4 -0.7,0.8 -1,1.2 -0.9,1.1 -1.5,1.8 -1.6,1.9 -0.1,0.1 -0.2,0.3 -0.4,0.6 -0.1,1.6 -0.1,2.4 0,2.4 v 1.7 c 0,0.4 0,0.8 0,1.1 0,0.3 0,0.9 -0.1,1.5 l -0.4,1 c -0.1,0.4 -0.3,0.8 -0.4,1.1 -0.3,-0.6 -0.4,-1.1 -0.5,-1.2 -0.1,-0.2 -0.2,-0.5 -0.4,-1 V 245 c -0.8,-1 -1.4,-1.8 -1.8,-2.3 -0.4,-0.5 -0.7,-1 -0.9,-1.3 -0.2,-0.3 -0.4,-0.6 -0.6,-0.9 -0.2,-0.3 -0.4,-0.7 -0.6,-1 -0.2,-0.4 -0.5,-0.9 -1,-1.6 -0.4,-0.7 -0.8,-1.2 -1.2,-1.5 0.5,0.1 1,0.2 1.3,0.3 0.3,0.2 0.6,0.4 1,0.7 0.2,0.2 0.4,0.4 0.6,0.6 0.1,0.1 0.3,0.3 0.5,0.7 0.2,0.4 0.5,0.6 0.9,1 l 0.9,1.1 0.5,0.7 1.4,1.8 1.1,-1.2 1,-1.2 1.2,-1.3 c 0.4,-0.7 0.7,-1.1 0.8,-1.2 z"
   id="path17"
   inkscape:connector-curvature="0"
   style="fill:#f59c00" />
		<path
   d="m 356.3,237.1 c 2.2,3.6 4.8,9.1 7.7,16.6 l -1,-1.1 c -1.6,-2.5 -3.7,-6.3 -6.3,-11.4 l -0.4,-0.8 c -2.9,5.1 -5.3,9.1 -7.3,12.1 l -1.1,1.2 c 4.9,-10.9 7.7,-16.4 8.4,-16.6 z"
   id="path19"
   inkscape:connector-curvature="0"
   style="fill:#f59c00" />
		<path
   d="m 392.5,237.4 c 1.3,0 2.5,0.1 3.6,0.6 1.1,0.4 1.9,1.1 2.6,2.1 l 0.8,1.2 c -2.1,-1.7 -4.2,-2.4 -6.3,-2.3 -1.6,0.2 -2.8,0.5 -3.4,1.1 -0.6,0.6 -1.2,1.5 -1.6,2.8 -0.4,1.3 -0.3,3 0.2,5.1 0.5,2.1 1.4,3.4 2.7,3.8 1.3,0.4 2.6,0.5 3.8,0.1 1.3,-0.6 2.1,-1.5 2.4,-2.9 v -3.3 l -3.8,-0.5 c -0.6,-0.2 -0.9,-0.4 -1.1,-0.5 -0.2,-0.2 0.2,-0.3 1.2,-0.3 l 5.9,-0.1 c 0,1 0,2.6 0,4.9 -0.8,2.6 -2.4,4 -4.8,4.4 l -1.2,0.1 c -4.1,-0.5 -6.5,-3.1 -7.2,-7.9 -0.1,-1.9 0.1,-3.4 0.6,-4.7 0.5,-1.2 1.2,-2.2 2.2,-2.8 0.9,-0.5 2.1,-0.9 3.4,-0.9 z"
   id="path21"
   inkscape:connector-curvature="0"
   style="fill:#f59c00" />
		<path
   d="m 421.7,237.2 1.2,0 c 4.8,0 8.2,0.1 10.4,0.4 -1.8,0.3 -3.4,0.5 -4.8,0.7 -1.5,0.2 -3.2,0.3 -5.1,0.4 l 0,0.6 c 0,1.5 -0.1,3.3 0,5.5 l 1.3,0 c 1,0 1.9,0.1 2.8,0.2 0.9,0.1 1.7,0.3 2.5,0.5 -1.5,0.4 -3.2,0.7 -5.1,0.8 l -1.5,0 0,5.9 c 2.1,0.1 4.1,0.3 5.8,0.5 1.7,0.2 3.1,0.5 4.1,0.9 H 424 l -2.3,0 0,-0.5 v -0.8 -1.3 c 0,-1.1 0,-2.3 0,-3.7 0,-1.4 0,-3.4 0,-6.1 l 0,-2.3 v -1.7 z"
   id="path23"
   inkscape:connector-curvature="0"
   style="fill:#f59c00" />
		<path
   d="m 460.6,237.3 c 0.9,0 1.6,0.2 2.3,0.4 l 1,0.4 c 0.6,0.3 1,0.6 1.3,0.9 l 0.9,1.1 c -0.7,-0.5 -1.5,-0.9 -2.5,-1.3 -1,-0.3 -2.1,-0.5 -3.4,-0.4 -2.4,0.3 -3.6,1.5 -3.3,3.5 0.3,1.1 1.6,1.9 3.7,2.3 2.2,0.5 3.7,1 4.7,1.7 1,0.7 1.4,2 1.2,3.9 -0.5,2 -1.6,3.3 -3.3,3.8 -0.8,0.2 -1.6,0.3 -2.5,0.2 l -1.4,-0.2 c -1.2,-0.2 -2.3,-0.7 -3.4,-1.4 l -1,-0.7 c 1.5,0.5 2.9,0.9 4.5,1.1 1.5,0.2 2.6,0.1 3.5,-0.3 0.9,-0.4 1.4,-0.9 1.8,-1.9 0.5,-1.3 0.4,-2.3 -0.2,-3 -0.6,-0.7 -2.8,-1.5 -6.5,-2.3 -2.3,-1.1 -3.2,-2.5 -2.8,-4.4 0.4,-2.1 1.9,-3.2 4.4,-3.4 0.2,0 0.6,0 1,0 z"
   id="path25"
   inkscape:connector-curvature="0"
   style="fill:#f59c00" />
	</g>
	<g
   id="g27">
		<path
   d="m 300.7,204.5 c -1.8,-9.8 -3.1,-16.2 -3.9,-19.3 -1.5,-6.2 -4,-12.9 -7.4,-19.9 -1.7,-3.5 -3.4,-6 -5.2,-7.5 -2.1,-1.7 -4.9,-2.8 -8.4,-3.2 -2,-0.2 -4.7,0.8 -8,2.9 -5,3.2 -10.1,9.9 -15.3,20.1 -4.6,9 -8.2,18.3 -10.8,28 -2.3,8.6 -3.5,13.3 -3.7,14.2 0,0.6 -0.1,1.5 -0.4,2.7 -0.3,1.2 -0.4,2.2 -0.4,2.8 0,0.9 0.2,1.5 0.7,1.7 1,-0.1 2.1,-0.9 3.2,-2.5 0.1,-0.1 0.8,-1.4 2.2,-3.8 0.3,-0.3 1.7,-2.5 4.3,-6.7 1.6,-2.6 2.8,-4.2 3.6,-4.8 1.3,-1 3.1,-2 5.3,-2.8 8.8,-2.9 15.3,-5 19.7,-6.2 3,-1 4.4,-2.1 4.4,-3.3 0,-1.5 -1.9,-2.2 -5.8,-2.2 -1.2,0 -2.9,0.1 -5.3,0.2 -2.4,0.1 -4.2,0.2 -5.3,0.2 -3.4,0 -5.2,-0.5 -5.4,-1.5 0.1,-1 0.8,-2.6 2.2,-4.9 3.1,-5.1 5.7,-8.7 7.7,-10.9 2.4,-2.6 4.4,-3.9 6,-3.7 2.3,0.3 4.5,2.8 6.9,7.5 0.7,1.6 2,5 3.9,10.1 2.8,7.9 4.7,13.7 5.9,17.5 2.1,7.1 3.5,11.6 4.2,13.5 1,3.1 1.8,5.4 2.3,7 0.9,2.6 1.8,4 2.6,4.3 1.3,-1 1.8,-5.5 1.5,-13.6 -0.4,-7.6 -0.8,-12.9 -1.3,-15.9 z"
   id="path29"
   inkscape:connector-curvature="0"
   style="fill:#7a231f" />
		<path
   d="m 353.7,183.4 c -1.7,-1.2 -2.7,-1.8 -3,-1.9 -0.6,-0.3 -1.8,-0.4 -3.5,-0.4 -2.5,0 -4.6,1.3 -6.3,3.8 -0.7,1.1 -1.8,3.5 -3.2,7.1 -1,2.5 -1.8,3.8 -2.6,3.8 -0.3,0 -1.1,-1.7 -2.3,-5.2 -1.5,-4.4 -2.6,-7.2 -3.3,-8.4 -1.8,-3.3 -4.1,-4.9 -6.8,-4.9 -2.3,0 -4.3,1 -5.9,3 -1.2,1.7 -2.1,2.9 -2.7,3.8 -0.5,0.5 -1,0.8 -1.4,0.8 -0.3,0 -0.5,-1.1 -0.9,-3.3 -0.3,-2.2 -0.6,-3.3 -0.8,-3.3 -0.1,0 -0.3,0.2 -0.4,0.5 -0.8,2.4 -1.6,8.1 -2.6,17 -0.9,8.3 -1.4,14.3 -1.4,17.9 0,5.7 0,8.8 0.1,9.3 0.2,4.8 0.8,7.2 1.8,7.2 l 0.2,-0.1 c 0.5,0 0.8,-0.8 1,-2.3 0.1,-1.3 0.2,-2.3 0.2,-2.9 0.3,-2.8 0.6,-4.8 0.9,-5.9 1.8,-8.2 2.9,-13.1 3.4,-14.5 2.3,-7.2 4.9,-10.7 8,-10.7 1.8,0 3.7,1.2 5.7,3.6 1.2,1.4 2.6,3.6 4.4,6.9 1.4,2.6 2.4,3.9 2.8,4.1 0.8,-0.1 1.7,-1.2 2.7,-3.3 1.4,-2.7 2.5,-4.6 3.4,-5.6 1.7,-1.9 3.7,-2.9 6.1,-2.9 2.9,0 5.5,3.3 7.8,9.8 0.8,2.4 2,6.9 3.6,13.6 l 0.8,5.8 c 0.4,3 0.9,4.4 1.3,4.4 l 0.2,0.1 c 1.2,0 1.7,-2.7 1.7,-8 0,-5.9 -0.7,-12.7 -2.1,-20.6 -1.7,-10.2 -4,-16.3 -6.9,-18.3 z"
   id="path31"
   inkscape:connector-curvature="0"
   style="fill:#7a231f" />
		<path
   d="m 411.1,186.3 c 0,-1.2 0.3,-2.7 0.8,-4.7 0.5,-2 0.8,-3.2 0.8,-3.5 0,-0.6 -0.5,-1.2 -1.4,-1.5 -3.1,0.5 -5.3,2.9 -6.7,7.4 -0.9,3 -1.4,6.5 -1.4,10.7 0,0.8 0.1,2 0.2,3.6 0.2,1.6 0.2,2.8 0.2,3.6 0,2.3 -0.5,4.7 -1.4,7.3 -1.6,2 -3.9,3.6 -7,4.9 -3,1.3 -5.9,1.9 -8.6,1.9 -3,0 -5.4,-1 -7.3,-2.9 -1.9,-2 -2.9,-4.4 -2.9,-7.4 0,-6.2 2.1,-11.2 6.4,-15.1 4.1,-3.7 9.3,-5.5 15.6,-5.5 l 3.2,0.6 c -0.8,-1 -1.6,-2.1 -2.4,-3.2 -1.6,-1.7 -4.4,-2.5 -8.5,-2.5 -2.4,0 -5.8,1.2 -10.1,3.6 -4.9,2.7 -8.7,6.5 -11.3,11.4 -2.6,4.9 -4,10.2 -4,16 0,5 1.4,8.9 4.2,11.7 2.8,2.8 6.7,4.2 11.7,4.2 7,0 13.6,-1.8 19.8,-5.4 0.6,-0.4 1.5,-1.1 2.5,-2.3 1,-1.1 1.8,-1.9 2.3,-2.2 0.9,-0.8 1.6,-1.3 2.1,-1.3 1.2,0 2.5,1.8 3.9,5.4 1.5,3.6 2.4,5.4 2.9,5.5 1,-1 1.5,-2.5 1.5,-4.5 -0.1,-3.8 -1,-9.7 -2.7,-17.8 -1.6,-7.8 -2.4,-13.8 -2.4,-18 z"
   id="path33"
   inkscape:connector-curvature="0"
   style="fill:#7a231f" />
		<path
   d="m 460.4,221.6 -15.3,-2.9 c -5.4,-1.3 -8.1,-2.7 -8.1,-4.2 0,-1.2 2.3,-2.9 7,-5.3 l 12.8,-6.7 c 4.6,-2.8 7,-5.2 7,-7.2 0,-4.3 -4.7,-7.6 -14.2,-10.1 -7.1,-1.9 -13.6,-2.8 -19.4,-2.8 -7.1,0 -10.6,0.8 -10.6,2.3 0,1 1,1.6 2.9,1.9 16.5,2.5 24.7,5.5 24.7,9.1 0,1.4 -2.5,3.3 -7.6,6 -3.2,1.5 -7.9,3.9 -14.2,7.1 -5.2,2.8 -7.7,5.2 -7.7,7.3 0,3.9 5.5,6.9 16.6,9 7.5,1.4 14.7,2.1 21.6,2.1 8.8,0 13.1,-0.8 13.1,-2.4 v -0.4 c -0.2,-0.8 -3.1,-1.8 -8.6,-2.8 z"
   id="path35"
   inkscape:connector-curvature="0"
   style="fill:#7a231f" />
		<path
   d="m 489.2,224.2 c -2.4,-0.4 -4.6,-2.4 -6.6,-6 -1.5,-2.8 -2.6,-5.5 -3.1,-8.3 -0.2,-1 -0.3,-2.2 -0.3,-3.5 0,-4.9 0.8,-10.4 2.4,-16.6 0.1,-0.4 1,-2.9 2.6,-7.2 1.2,-3.3 1.8,-5.6 1.8,-7 0,-0.8 -0.2,-1.2 -0.6,-1.4 -7.5,3.6 -12.9,10.9 -16,21.9 -1.2,4.3 -1.8,8.7 -1.8,13.4 0,12.6 4.5,18.8 13.6,18.8 3.4,0.2 6,-1.3 8,-4.1 z"
   id="path37"
   inkscape:connector-curvature="0"
   style="fill:#7a231f" />
		<path
   d="m 538.3,211.5 c -0.5,-5 -0.8,-8.2 -0.9,-9.7 -1.2,-9.2 -2.2,-16 -3,-20.4 -0.4,0.1 -1.1,1.8 -2.2,5.2 -1.1,3.4 -2.3,5.1 -3.7,5.1 -1,0 -2.1,-0.5 -3.3,-1.5 -1.5,-3.1 -4.1,-5.8 -7.8,-8 -3.6,-2.2 -7.2,-3.5 -10.7,-3.7 -5.9,-0.5 -10.8,0.8 -14.8,3.8 -4.3,3.3 -6.7,8.2 -7.2,14.5 -0.1,1.6 -0.2,2.9 -0.2,3.7 0,6.7 2.6,13.6 7.9,20.7 2.4,3.2 4.6,5.3 6.6,6.2 4.8,2.2 8.6,3.2 11.2,2.9 7.6,-0.8 11.2,-2.4 10.9,-4.9 l -0.1,-0.7 c -2.2,0.4 -3.2,0.6 -3,0.6 -6.2,0 -11.5,-2.1 -15.7,-6.2 -4.2,-4.2 -6.4,-9.7 -6.4,-16.5 0,-3.2 1,-5.9 2.9,-8.1 2,-2.2 4.4,-3.3 7.3,-3.3 3.4,0 6.2,0.7 8.5,2.1 5.7,3.6 10,12.5 12.8,26.8 0.6,1.6 0.9,5.9 0.9,12.8 0,4.8 -2.4,8 -7.1,9.6 -2.9,1 -6,1.5 -9.2,1.5 -1.6,0 -4.1,-0.2 -7.3,-0.5 -3.3,-0.4 -5.7,-0.5 -7.3,-0.5 -1.4,0 -3.4,-0.4 -6.1,-1.1 -2.7,-0.7 -4.7,-1.1 -6.1,-1.1 -0.8,0 -1.1,0.2 -1.1,0.5 0.6,3.6 5.5,6.7 14.8,9.4 8,2.4 15.2,3.5 21.7,3.5 11.7,0 17.7,-4.1 18.1,-12.4 0.2,-4.7 0.4,-8.2 0.5,-10.6 0.1,-1.3 -0.1,-4.6 -0.4,-9.8 -0.1,-4.6 -0.3,-7.9 -0.5,-9.9 z"
   id="path39"
   inkscape:connector-curvature="0"
   style="fill:#7a231f" />
		<path
   d="m 587.3,200.8 c -1.4,-4.8 -3.6,-10.2 -6.9,-16.1 -0.6,-1.1 -1.5,-2.3 -2.9,-3.5 -0.5,-0.5 -1.6,-1.4 -3.4,-2.8 -0.6,-0.5 -1.7,-1.1 -3.3,-1.6 -1.5,-0.6 -2.7,-0.9 -3.5,-0.9 -6.3,0 -11,3 -13.9,9 -1.3,0.1 -2.1,-1.7 -2.3,-5.2 0,0 0,-0.1 0.1,-0.3 0,-0.5 0,-1.3 0,-2.6 0,-1.3 0,-2.9 0,-5 0,-16.4 -0.8,-24.7 -2.4,-24.7 -1.8,-0.1 -3.4,4.6 -4.7,14.2 -1,7.4 -1.5,14.4 -1.4,20.9 0.1,13.4 0.2,22 0.3,25.7 0.5,5.7 0.7,9.2 0.8,10.5 0.7,5.5 1.7,8.2 3.1,8.2 0.8,0 1.4,-1.5 1.7,-4.6 l 0.8,-6.1 c 1.4,-5.7 2.4,-9.3 2.8,-10.7 1.4,-4.2 3.2,-7.3 5.4,-9.5 0.6,-0.6 1.7,-1.3 3,-2 1.4,-0.7 2.5,-1.1 3.2,-1.1 6.1,0 11,3.4 14.8,10.2 2.4,4.3 4.4,10.4 6.2,18.4 0.3,1.4 0.5,2.5 0.7,3.2 0.3,1.3 1,1.9 2,1.9 1.3,0 1.9,-2.7 1.9,-8.1 0,-6.4 -0.7,-12.2 -2.1,-17.4 z"
   id="path41"
   inkscape:connector-curvature="0"
   style="fill:#7a231f" />
	</g>
	<linearGradient
   id="SVGID_1_"
   gradientUnits="userSpaceOnUse"
   x1="405.72699"
   y1="117.3469"
   x2="405.72699"
   y2="87.246803">
		<stop
   offset="0"
   style="stop-color:#F9B233"
   id="stop44" />
		<stop
   offset="0.1777"
   style="stop-color:#F8AD31"
   id="stop46" />
		<stop
   offset="0.4169"
   style="stop-color:#F6A02C"
   id="stop48" />
		<stop
   offset="0.6912"
   style="stop-color:#F18824"
   id="stop50" />
		<stop
   offset="0.9897"
   style="stop-color:#EC661A"
   id="stop52" />
		<stop
   offset="1"
   style="stop-color:#EC641A"
   id="stop54" />
	</linearGradient>
	<path
   d="m 419.2,92.7 c -2.8,-3.4 -7,-5.5 -11.7,-5.5 -8.4,0 -15.2,6.8 -15.2,15.2 0,7.3 5.1,13.4 12,14.9 9,-10.4 13.6,-21.1 14.9,-24.6 z"
   id="path56"
   inkscape:connector-curvature="0"
   style="fill:url(#SVGID_1_)" />
	<path
   d="M 452.2,121.1"
   id="path58"
   inkscape:connector-curvature="0"
   style="fill:#ffffff" />
	<g
   id="g60">
		<path
   d="m 482.4,144.9 c 0.4,0.6 0.7,1.3 0.8,2 0.1,0.1 0.1,0.2 0.2,0.3 0.6,1.2 0.7,2.5 0.2,3.5 0,0.1 0,0.1 0,0.2 0,0.2 0,0.4 -0.1,0.6 0,0 0,0 0,0 9.8,8.1 19.7,14.1 28.7,15.3 -9,-2.3 -19.4,-11.1 -29.6,-22.4 -0.1,0.2 -0.1,0.4 -0.2,0.5 z"
   id="path62"
   inkscape:connector-curvature="0"
   style="fill:#7a231f" />
		<path
   d="m 453.2,120.3 c 1.6,-1.3 3.5,-2.4 5.3,-2.5 0.1,0 0.3,0 0.5,0 h 0 c 1,0 2.2,0.4 3.3,0.9 -17.4,-24.5 -31,-49.2 -31.2,-49.6 0,0 -4.4,34.8 -40.4,68.2 l -0.4,0.5 c 0.2,-0.2 25.3,-17.7 42.1,-45 1.9,3 9.9,14.5 20.8,27.5 z"
   id="path64"
   inkscape:connector-curvature="0"
   style="fill:#7a231f" />
	</g>
</g>
</svg>